<?xml version="1.0" encoding="UTF-8" standalone="no"?>
<svg
   viewBox="0 0 124.44 144.00"
   id="logo"
   version="1.1"
   xml:space="preserve"
   inkscape:export-xdpi="96"
   inkscape:export-ydpi="96"
   inkscape:version="1.2.2 (732a01da63, 2022-12-09)"
   xmlns:inkscape="http://www.inkscape.org/namespaces/inkscape"
   xmlns:sodipodi="http://sodipodi.sourceforge.net/DTD/sodipodi-0.dtd"
   xmlns:xlink="http://www.w3.org/1999/xlink"
   xmlns="http://www.w3.org/2000/svg"
   xmlns:svg="http://www.w3.org/2000/svg"><sodipodi:namedview
   id="namedview105"
   pagecolor="#ffffff"
   bordercolor="#000000"
   borderopacity="0.25"
   inkscape:showpageshadow="2"
   inkscape:pageopacity="0.0"
   inkscape:pagecheckerboard="0"
   inkscape:deskcolor="#d1d1d1"
   showgrid="false"
   inkscape:zoom="2.0153513"
   inkscape:cx="43.91294"
   inkscape:cy="145.13599"
   inkscape:window-width="1920"
   inkscape:window-height="1001"
   inkscape:window-x="-9"
   inkscape:window-y="-9"
   inkscape:window-maximized="1"
   inkscape:current-layer="logo" />
<defs
   id="defs4"><linearGradient
     inkscape:collect="always"
     id="linearGradient43463"><stop
       style="stop-color:#6aade4;stop-opacity:1;"
       offset="0"
       id="stop43459" /><stop
       style="stop-color:#005172;stop-opacity:1;"
       offset="0.21656051"
       id="stop43471" /><stop
       style="stop-color:#005172;stop-opacity:1;"
       offset="0.71337581"
       id="stop43467" /><stop
       style="stop-color:#002b40;stop-opacity:1;"
       offset="0.94745225"
       id="stop43469" /><stop
       style="stop-color:#6aade4;stop-opacity:1;"
       offset="1"
       id="stop43461" /></linearGradient><linearGradient
     id="linearGradient9462"><stop
       style="stop-color:#d5d2ca;stop-opacity:1;"
       offset="0"
       id="stop9458" /><stop
       style="stop-color:#000000;stop-opacity:1;"
       offset="1"
       id="stop9460" /></linearGradient><linearGradient
     id="linearGradient3491"><stop
       style="stop-color:#aa272f;stop-opacity:1;"
       offset="0"
       id="stop3487" /><stop
       style="stop-color:#d0b972;stop-opacity:0.28301886;"
       offset="1"
       id="stop3489" /></linearGradient><style
     type="text/css"
     id="style6">
    line, polyline, path, rect, circle {
      fill: none;
      stroke: #000000;
      stroke-linecap: round;
      stroke-linejoin: round;
      stroke-miterlimit: 10.00;
    }
  </style><clipPath
     clipPathUnits="userSpaceOnUse"
     id="clipPath1107"><g
       id="g1111"><rect
         x="8.2200003"
         y="5.48"
         width="130.3"
         height="130.3"
         id="rect1109" /></g></clipPath><clipPath
     clipPathUnits="userSpaceOnUse"
     id="clipPath1101"><g
       id="g1105"><rect
         x="8.2200003"
         y="5.48"
         width="130.3"
         height="130.3"
         id="rect1103" /></g></clipPath><clipPath
     clipPathUnits="userSpaceOnUse"
     id="clipPath1095"><g
       id="g1099"><rect
         x="8.2200003"
         y="5.48"
         width="130.3"
         height="130.3"
         id="rect1097" /></g></clipPath><clipPath
     clipPathUnits="userSpaceOnUse"
     id="clipPath1089"><g
       id="g1093"><rect
         x="8.2200003"
         y="5.48"
         width="130.3"
         height="130.3"
         id="rect1091" /></g></clipPath><clipPath
     clipPathUnits="userSpaceOnUse"
     id="clipPath1083"><g
       id="g1087"><rect
         x="8.2200003"
         y="5.48"
         width="130.3"
         height="130.3"
         id="rect1085" /></g></clipPath><clipPath
     clipPathUnits="userSpaceOnUse"
     id="clipPath1077"><g
       id="g1081"><rect
         x="8.2200003"
         y="5.48"
         width="130.3"
         height="130.3"
         id="rect1079" /></g></clipPath><clipPath
     clipPathUnits="userSpaceOnUse"
     id="clipPath1071"><g
       id="g1075"><rect
         x="8.2200003"
         y="5.48"
         width="130.3"
         height="130.3"
         id="rect1073" /></g></clipPath><clipPath
     clipPathUnits="userSpaceOnUse"
     id="clipPath1065"><g
       id="g1069"><rect
         x="8.2200003"
         y="5.48"
         width="130.3"
         height="130.3"
         id="rect1067" /></g></clipPath><clipPath
     clipPathUnits="userSpaceOnUse"
     id="clipPath1059"><g
       id="g1063"><rect
         x="8.2200003"
         y="5.48"
         width="130.3"
         height="130.3"
         id="rect1061" /></g></clipPath><clipPath
     clipPathUnits="userSpaceOnUse"
     id="clipPath1053"><g
       id="g1057"><rect
         x="8.2200003"
         y="5.48"
         width="130.3"
         height="130.3"
         id="rect1055" /></g></clipPath><clipPath
     clipPathUnits="userSpaceOnUse"
     id="clipPath1047"><g
       id="g1051"><rect
         x="8.2200003"
         y="5.48"
         width="130.3"
         height="130.3"
         id="rect1049" /></g></clipPath><clipPath
     clipPathUnits="userSpaceOnUse"
     id="clipPath1041"><g
       id="g1045"><rect
         x="8.2200003"
         y="5.48"
         width="130.3"
         height="130.3"
         id="rect1043" /></g></clipPath><clipPath
     clipPathUnits="userSpaceOnUse"
     id="clipPath1035"><g
       id="g1039"><rect
         x="8.2200003"
         y="5.48"
         width="130.3"
         height="130.3"
         id="rect1037" /></g></clipPath><clipPath
     clipPathUnits="userSpaceOnUse"
     id="clipPath1029"><g
       id="g1033"><rect
         x="8.2200003"
         y="5.48"
         width="130.3"
         height="130.3"
         id="rect1031" /></g></clipPath><clipPath
     clipPathUnits="userSpaceOnUse"
     id="clipPath1023"><g
       id="g1027"><rect
         x="8.2200003"
         y="5.48"
         width="130.3"
         height="130.3"
         id="rect1025" /></g></clipPath><clipPath
     clipPathUnits="userSpaceOnUse"
     id="clipPath1017"><g
       id="g1021"><rect
         x="8.2200003"
         y="5.48"
         width="130.3"
         height="130.3"
         id="rect1019" /></g></clipPath><clipPath
     clipPathUnits="userSpaceOnUse"
     id="clipPath1011"><g
       id="g1015"><rect
         x="8.2200003"
         y="5.48"
         width="130.3"
         height="130.3"
         id="rect1013" /></g></clipPath><clipPath
     clipPathUnits="userSpaceOnUse"
     id="clipPath1005"><g
       id="g1009"><rect
         x="8.2200003"
         y="5.48"
         width="130.3"
         height="130.3"
         id="rect1007" /></g></clipPath><clipPath
     clipPathUnits="userSpaceOnUse"
     id="clipPath999"><g
       id="g1003"><rect
         x="8.2200003"
         y="5.48"
         width="130.3"
         height="130.3"
         id="rect1001" /></g></clipPath><clipPath
     clipPathUnits="userSpaceOnUse"
     id="clipPath993"><g
       id="g997"><rect
         x="8.2200003"
         y="5.48"
         width="130.3"
         height="130.3"
         id="rect995" /></g></clipPath><clipPath
     clipPathUnits="userSpaceOnUse"
     id="clipPath987"><g
       id="g991"><rect
         x="8.2200003"
         y="5.48"
         width="130.3"
         height="130.3"
         id="rect989" /></g></clipPath><clipPath
     clipPathUnits="userSpaceOnUse"
     id="clipPath981"><g
       id="g985"><rect
         x="8.2200003"
         y="5.48"
         width="130.3"
         height="130.3"
         id="rect983" /></g></clipPath><clipPath
     clipPathUnits="userSpaceOnUse"
     id="clipPath1449"><g
       id="g1453"
       transform="matrix(0.4974942,0.93748924,-0.87902738,0.55215298,106.44028,-48.393302)"><polyline
         points="2.285 37.429 2.285 106.799 62.105 141.486 121.926 106.799 121.926 37.429 62.105 2.743 2.285 37.429"
         style="mix-blend-mode:normal;fill:none;fill-opacity:1;fill-rule:nonzero;stroke:#ff7900;stroke-width:4;stroke-linecap:round;stroke-linejoin:round;stroke-miterlimit:10;stroke-opacity:1"
         clip-path="url(#cpMHwxMjQuNDQxfDE0My45OTd8MC4xNDMxMzc=)"
         id="polyline1451"
         transform="translate(0.17407108,-0.092996)" /></g></clipPath><clipPath
     clipPathUnits="userSpaceOnUse"
     id="clipPath1467"><g
       id="g1471"
       transform="matrix(0.4974942,0.93748924,-0.87902738,0.55215298,106.44028,-48.393302)"><polyline
         points="2.285 37.429 2.285 106.799 62.105 141.486 121.926 106.799 121.926 37.429 62.105 2.743 2.285 37.429"
         style="mix-blend-mode:normal;fill:none;fill-opacity:1;fill-rule:nonzero;stroke:#ff7900;stroke-width:4;stroke-linecap:round;stroke-linejoin:round;stroke-miterlimit:10;stroke-opacity:1"
         clip-path="url(#cpMHwxMjQuNDQxfDE0My45OTd8MC4xNDMxMzc=)"
         id="polyline1469"
         transform="translate(0.17407108,-0.092996)" /></g></clipPath><linearGradient
     xlink:href="#linearGradient3491"
     id="linearGradient3493"
     x1="75"
     y1="20"
     x2="30"
     y2="145"
     gradientUnits="userSpaceOnUse" /><linearGradient
     xlink:href="#linearGradient9462"
     id="linearGradient9464"
     x1="49.826"
     y1="80.093033"
     x2="99.825996"
     y2="20.093031"
     gradientUnits="userSpaceOnUse" /><clipPath
     id="cpMC4wMHwyOTguODB8MC4wMHwyNTMuODA="><rect
       x="0"
       y="0"
       width="298.79999"
       height="253.8"
       id="rect8" /></clipPath><clipPath
     id="clipPath3700"><rect
       x="0"
       y="0"
       width="298.79999"
       height="253.8"
       id="rect3698" /></clipPath><radialGradient
     inkscape:collect="always"
     xlink:href="#linearGradient43463"
     id="radialGradient43465"
     cx="53.959545"
     cy="49.466972"
     fx="53.959545"
     fy="49.466972"
     r="50.045078"
     gradientTransform="matrix(0.58159703,1.4169954,-1.1567338,0.47477424,84.794423,-45.775219)"
     gradientUnits="userSpaceOnUse" /></defs><polyline
   points="2.285 37.429 2.285 106.799 62.105 141.486 121.926 106.799 121.926 37.429 62.105 2.743 2.285 37.429"
   style="mix-blend-mode:normal;fill:#333333;fill-opacity:1;fill-rule:nonzero;stroke:#008a00;stroke-width:4;stroke-opacity:1"
   clip-path="none"
   id="polyline29"
   transform="translate(0.174,-0.09303119)" /><rect
   width="133.33333%"
   height="133.33333%"
   style="fill:none;stroke:none;stroke-width:1.33333;stroke-linecap:round;stroke-linejoin:round;stroke-miterlimit:10"
   id="rect6"
   x="-119.34284"
   y="-88.484215" /><g
   clip-path="url(#cpMC4wMHwyOTguODB8MC4wMHwyNTMuODA=)"
   id="g13"
   transform="matrix(1.3333333,0,0,1.3333333,-119.34285,-88.4842)" /><rect
   x="-262.77606"
   y="-168.20638"
   width="750.78717"
   height="562.53766"
   id="rect15"
   style="stroke-width:2.51267" /><g
   clip-path="url(#cpMC4wMHwyOTguODB8MC4wMHwyNTMuODA=)"
   id="g762"
   transform="matrix(1.3333333,0,0,1.3333333,-119.34285,-88.4842)" /><g
   aria-label="SQUARES"
   transform="matrix(1.0638262,-0.63049749,0.63049749,1.0638262,-8.5257528,-4.2664279)"
   id="text48095"
   style="font-size:24px;letter-spacing:-2.5px;word-spacing:0px;fill:#ff7900;fill-opacity:1;stroke:none"><g
     id="path48877"
     style="fill:#ff7900;fill-opacity:1;stroke:none"><path
       style="color:#000000;fill:#ff7900;fill-opacity:1;stroke:none;stroke-linecap:round;stroke-linejoin:round;stroke-miterlimit:10;-inkscape-stroke:none"
       d="m -8.1668873,48.650726 q -0.84375,-0.9375 -2.7187497,-1.78125 -2.53125,-1.125 -3.46875,-1.96875 -0.9375,-0.84375 -0.9375,-2.625 0,-1.40625 1.125,-2.625 1.21875,-1.3125 3.375,-1.3125 0.9374997,0 1.7812497,0.375 0.84375,0.28125 1.21875,0.28125 0.28125,0 0.46875,-0.09375 0.28125,-0.1875 0.46875,-0.5625 l 0.375,3.84375 -0.46875,0.1875 q -0.84375,-1.96875 -1.78125,-2.625 -0.84375,-0.75 -2.2499997,-0.75 -1.78125,0 -2.4375,1.03125 -0.65625,0.9375 -0.65625,2.0625 0,1.03125 0.5625,1.6875 0.65625,0.5625 3.375,1.78125 2.2499997,0.9375 3.1874997,2.15625 1.03125,1.125 1.03125,2.71875 0,1.6875 -1.21875,3 -1.125,1.3125 -3.3749997,1.3125 -0.9375,0 -1.78125,-0.28125 -0.75,-0.375 -1.21875,-0.375 -0.28125,0 -0.5625,0.1875 -0.28125,0.1875 -0.65625,0.46875 l -0.75,-4.59375 0.5625,-0.1875 q 0.65625,2.34375 1.78125,3.28125 1.21875,0.84375 2.71875,0.84375 1.5937497,0 2.3437497,-0.9375 0.84375,-0.9375 0.84375,-2.71875 0,-0.9375 -0.9375,-1.78125 z"
       id="path48894" /><path
       style="color:#000000;fill:#ff7900;fill-opacity:1;stroke:none;stroke-linecap:round;stroke-linejoin:round;stroke-miterlimit:10;-inkscape-stroke:none"
       d="m -10.791016,37.837891 c -1.538947,0 -2.82964,0.489913 -3.742187,1.472656 a 0.50005,0.50005 0 0 0 -0.002,0.002 c -0.81501,0.882928 -1.25586,1.892058 -1.25586,2.962891 0,1.275218 0.346521,2.316556 1.101563,2.996093 0.708894,0.638005 1.891783,1.295547 3.599609,2.054688 1.2123971,0.545579 2.0615847,1.114651 2.5507815,1.658203 a 0.50005,0.50005 0 0 0 0.037109,0.03711 c 0.5565561,0.500901 0.7734375,0.951824 0.7734375,1.410157 0,1.108551 -0.2596316,1.876804 -0.7167969,2.384765 a 0.50005,0.50005 0 0 0 -0.017578,0.02148 c -0.3920747,0.490093 -0.9886654,0.75 -1.9531251,0.75 -0.899664,0 -1.68885,-0.247644 -2.417968,-0.748047 -0.62213,-0.528417 -1.183435,-1.518406 -1.601563,-3.011719 a 0.50005,0.50005 0 0 0 -0.638672,-0.339844 l -0.5625,0.1875 a 0.50005,0.50005 0 0 0 -0.335937,0.554688 l 0.75,4.59375 a 0.50005,0.50005 0 0 0 0.792968,0.320312 c 0.244667,-0.1835 0.457934,-0.335236 0.634766,-0.453125 0.123496,-0.08233 0.208768,-0.103515 0.285156,-0.103515 0.179167,0 0.531409,0.0909 0.994141,0.322265 a 0.50005,0.50005 0 0 0 0.06641,0.02734 c 0.615204,0.205068 1.264454,0.306641 1.939453,0.306641 1.5925702,0 2.8868771,-0.486306 3.7441407,-1.480469 0.8811868,-0.951947 1.3496094,-2.089572 1.3496094,-3.332031 0,-1.162273 -0.3957468,-2.203272 -1.1523438,-3.03711 -0.7039064,-0.907048 -1.8304545,-1.652706 -3.3632812,-2.292969 l -0.011719,-0.0059 c -1.7641281,-0.791638 -2.8664141,-1.401653 -3.1972651,-1.675781 -0.277905,-0.335421 -0.431641,-0.749071 -0.431641,-1.332031 0,-0.652778 0.180835,-1.227366 0.564453,-1.775391 a 0.50005,0.50005 0 0 0 0.01367,-0.01758 c 0.327494,-0.514632 0.924619,-0.800781 2.015625,-0.800781 0.848611,0 1.4566079,0.216636 1.9160165,0.625 a 0.50005,0.50005 0 0 0 0.046875,0.03516 c 0.4902936,0.343205 1.063411,1.14275 1.6074219,2.412109 a 0.50005,0.50005 0 0 0 0.6464844,0.267578 l 0.46875,-0.1875 a 0.50005,0.50005 0 0 0 0.3105468,-0.513672 l -0.375,-3.84375 a 0.50005,0.50005 0 0 0 -0.9433593,-0.173828 c -0.088521,0.177043 -0.1824424,0.274586 -0.2773438,0.34375 -0.040587,0.01629 -0.097889,0.03516 -0.2128906,0.03516 -0.1249999,0 -0.5191293,-0.07539 -1.0605469,-0.25586 l 0.044922,0.01758 c -0.6252589,-0.277918 -1.292664,-0.417973 -1.98433,-0.417973 z m 2.3476566,1.496093 0.025391,0.02148 c 0.2001311,0.04371 0.4562634,0.138672 0.6269532,0.138672 0.1887776,0 0.3639462,-0.05245 0.5371094,-0.113282 l 0.1894531,1.955078 c -0.4263321,-0.779758 -0.8355622,-1.60891 -1.3652344,-1.984375 -4.281e-4,-3.71e-4 -0.00152,3.71e-4 -0.00195,0 -0.00465,-0.0033 -0.00706,-0.01432 -0.011719,-0.01758 z m -5.3828126,0.404297 c -0.0028,0.004 -0.0011,0.0096 -0.0039,0.01367 -0.0018,0.0028 -0.006,0.0031 -0.0078,0.0059 z m -0.373047,1.171875 c -0.125798,0.394467 -0.373047,0.753164 -0.373047,1.177735 0,0.778408 0.222421,1.477915 0.681641,2.013671 a 0.50005,0.50005 0 0 0 0.05469,0.05469 c 0.561065,0.480913 1.671098,1.03932 3.496094,1.857422 a 0.50005,0.50005 0 0 0 0.01172,0.0039 c 1.4517507,0.604896 2.4394615,1.291613 2.984375,2 a 0.50005,0.50005 0 0 0 0.027344,0.0332 c 0.6080273,0.663303 0.9003906,1.426204 0.9003906,2.38086 0,0.933182 -0.3334505,1.733826 -0.96875,2.482421 0.404213,-0.681949 0.65625,-1.487627 0.65625,-2.482421 0,-0.781061 -0.4054039,-1.506285 -1.0820313,-2.125 -0.63587,-0.701733 -1.5884041,-1.316247 -2.8691413,-1.892579 a 0.50005,0.50005 0 0 0 -0.002,-0.002 c -1.66604,-0.740462 -2.797076,-1.396079 -3.33789,-1.882812 -0.494958,-0.445462 -0.771485,-1.154127 -0.771485,-2.253906 0,-0.480313 0.357512,-0.916699 0.591797,-1.365235 z m -0.480469,11.041016 c 0.337181,0.673952 0.72596,1.24173 1.199219,1.644531 -0.009,-1.29e-4 -0.02031,-0.0078 -0.0293,-0.0078 -0.29861,0 -0.58834,0.103815 -0.839843,0.271484 -0.0046,0.0031 -0.01096,0.0086 -0.01563,0.01172 z m 6.9960943,1.511719 -0.017578,0.02148 c 0.00346,-0.0038 0.00437,-0.0098 0.00781,-0.01367 0.00266,-0.0033 0.00712,-0.0045 0.00977,-0.0078 z"
       id="path48896" /></g><g
     id="path48879"
     style="fill:#ff7900;fill-opacity:1;stroke:none"><path
       style="color:#000000;fill:#ff7900;fill-opacity:1;stroke:none;stroke-linecap:round;stroke-linejoin:round;stroke-miterlimit:10;-inkscape-stroke:none"
       d="m -0.44813728,53.994476 q 0.28125,0 0.375,-0.09375 -0.28125,-1.40625 -0.65625,-2.25 -0.37500002,-0.9375 -1.12500002,-0.9375 -0.375,0 -0.9375,0.375 -0.46875,0.375 -0.46875,1.21875 0,0.65625 0.65625,1.21875 0.65625,0.46875 1.59375,0.46875 0.37500002,0 0.56250002,0 z m -2.62500002,-3.75 q 0.46875,-0.46875 1.40625,-0.46875 1.12500002,0 1.68750002,0.84375 0.65625,0.75 1.12499998,2.34375 0.65625,-0.46875 0.9375,-2.0625 0.375,-1.6875 0.375,-4.40625 0,-3.65625 -0.84375,-5.53125 -0.74999998,-1.96875 -2.625,-1.96875 -1.59375,0 -2.53125,1.875 -0.9375,1.875 -0.9375,5.625 0,1.875 0.09375,3.1875 0.1875,1.21875 0.46875,1.78125 0.375,-0.84375 0.84375,-1.21875 z m 2.81250002,4.40625 q -0.28125,0 -0.75000002,0 -2.0625,0 -3.65625,-1.875 -1.59375,-1.875 -1.59375,-6.28125 0,-3.75 1.40625,-5.90625 1.40625,-2.25 3.84375,-2.25 2.25,0 3.75,2.15625 1.5,2.0625 1.5,6 0,3.28125 -0.84375,4.96875 -0.75,1.6875 -1.875,2.53125 0.1875,0.65625 0.46875,0.9375 0.28125,0.28125 0.5625,0.28125 0.375,0 0.65625,-0.1875 0.28125,-0.1875 0.375,-0.65625 l 0.375,0.1875 q -0.28125,1.125 -0.75,1.59375 -0.46875,0.5625 -1.125,0.5625 -0.46875,0 -0.9375,-0.28125 -0.37499998,-0.28125 -1.03124998,-1.875 -0.09375,0.09375 -0.375,0.09375 z"
       id="path48900" /><path
       style="color:#000000;fill:#ff7900;fill-opacity:1;stroke:none;stroke-linecap:round;stroke-linejoin:round;stroke-miterlimit:10;-inkscape-stroke:none"
       d="m -1.0097656,37.837891 c -1.7755502,0 -3.2574625,0.872162 -4.2636719,2.476562 -7.497e-4,0.0012 -0.0012,0.0028 -0.00195,0.0039 -1.0084088,1.548209 -1.484375,3.615186 -1.484375,6.175782 0,2.99778 0.5232642,5.208206 1.7109375,6.605468 1.1314309,1.331096 2.5125489,2.050782 4.0390625,2.050782 h 0.74999997 c 0.0285727,0 0.0572938,-0.02693 0.0859375,-0.02734 0.15087643,0.344695 0.30228291,0.699108 0.43554687,0.941406 0.18636629,0.338848 0.3336513,0.579828 0.58398438,0.767578 a 0.50005,0.50005 0 0 0 0.0429687,0.0293 c 0.37555048,0.22533 0.78281288,0.351563 1.19531248,0.351563 0.5737188,0 1.1051545,-0.280688 1.4902344,-0.734375 0.4085942,-0.417998 0.6725014,-1.014225 0.8691406,-1.800782 a 0.50005,0.50005 0 0 0 -0.2617218,-0.56836 l -0.375,-0.1875 A 0.50005,0.50005 0 0 0 3.09375,54.271484 c -0.046157,0.230785 -0.1132845,0.305341 -0.1621094,0.337891 -0.1021614,0.06811 -0.2122397,0.103516 -0.3789062,0.103516 -0.020833,0 -0.08041,-0.0062 -0.2089844,-0.134766 -0.067088,-0.06709 -0.1667804,-0.303201 -0.2578125,-0.541016 0.6883081,-0.610257 1.3075142,-1.343609 1.7636719,-2.36914 0.614752,-1.239696 0.890625,-2.953241 0.890625,-5.173828 0,-2.686506 -0.5063932,-4.791865 -1.59375,-6.289063 -1.0665659,-1.530551 -2.49831949,-2.367187 -4.15625,-2.367187 z m -1.9140625,1.480468 c -0.4014504,0.354411 -0.7811839,0.761587 -1.0644532,1.328125 -0.6846277,1.369256 -0.9902343,3.305992 -0.9902343,5.847657 0,1.258332 0.030044,2.330779 0.09375,3.222656 a 0.50005,0.50005 0 0 0 0.00586,0.04102 c 0.1289551,0.838209 0.2834038,1.465246 0.515625,1.929688 a 0.50005,0.50005 0 0 0 0.8515624,0.01367 c -0.05983,0.219566 -0.2480468,0.35885 -0.2480468,0.605469 0,0.385992 0.3036837,0.692945 0.53125,1.021484 -0.3572341,-0.254137 -0.7183668,-0.478984 -1.0566406,-0.876953 -0.9373247,-1.102735 -1.4746094,-3.079818 -1.4746094,-5.957031 0,-2.437498 0.4591689,-4.306403 1.3242187,-5.632813 a 0.50005,0.50005 0 0 0 0.00586,-0.0078 c 0.4395955,-0.703353 0.934753,-1.205404 1.5058594,-1.535157 z m 1.9140625,0.175782 c 1.07499892,0 1.70559633,0.463518 2.15625,1.646484 a 0.50005,0.50005 0 0 0 0.011719,0.02734 c 0.5125903,1.139089 0.8007813,2.927136 0.8007813,5.326172 0,1.789509 -0.1256168,3.229337 -0.3632813,4.298828 a 0.50005,0.50005 0 0 0 -0.00586,0.02148 c -0.1054429,0.59751 -0.2790408,0.739052 -0.4375,1.035156 -0.23221979,-0.546968 -0.43416027,-1.174176 -0.74414057,-1.533203 -0.46264298,-0.66926 -1.21340573,-1.041015 -2.07421873,-1.041015 -0.7003476,0 -1.3104955,0.187387 -1.7402344,0.607421 -0.1222843,0.100705 -0.1939066,0.301456 -0.3007813,0.429688 -0.060926,-0.247678 -0.1279712,-0.36204 -0.1796875,-0.695313 -0.060171,-0.853721 -0.091797,-1.892911 -0.091797,-3.123046 0,-2.458331 0.3193946,-4.269649 0.8847656,-5.400391 0.5743152,-1.14863 1.2175637,-1.599609 2.0839844,-1.599609 z m 2.4960937,0.466796 c 0.2827505,0.261267 0.5826113,0.445781 0.8417969,0.81836 a 0.50005,0.50005 0 0 0 0.00781,0.0098 c 0.9109785,1.252596 1.4042969,3.143573 1.4042969,5.705079 0,2.14464 -0.2864883,3.737039 -0.7910156,4.746093 a 0.50005,0.50005 0 0 0 -0.00977,0.01953 c -0.1974961,0.444348 -0.4827317,0.628142 -0.7148369,0.97067 0.1415983,-0.357909 0.2612931,-0.748468 0.3457031,-1.220703 v -0.002 c 0.2621041,-1.180273 0.3886719,-2.678973 0.3886719,-4.513671 0,-2.466949 -0.2750759,-4.358888 -0.8828125,-5.71875 -0.1335438,-0.347803 -0.3936304,-0.53968 -0.5898438,-0.814454 z m -3.1523437,10.314454 c 0.020064,0 0.021498,0.01914 0.041016,0.01953 -0.01745,-0.0029 -0.031281,-0.01533 -0.048828,-0.01758 0.00393,-1.4e-5 0.00386,-0.002 0.00781,-0.002 z m 0.8847656,0.43164 c 0.1062525,0.08804 0.2985697,0.05723 0.38671875,0.189453 a 0.50005,0.50005 0 0 0 0.0390625,0.05273 c 0.36077122,0.41231 0.7208165,1.132026 1.02148437,2.154297 a 0.50005,0.50005 0 0 0 0.71484378,0.273437 c -0.060304,0.05103 -0.098349,0.170441 -0.1601563,0.216797 a 0.50005,0.50005 0 0 0 -0.1816406,0.539062 c 0.1379584,0.482855 0.3119473,0.866635 0.5976562,1.152344 0.2464254,0.246426 0.5618494,0.427735 0.9160157,0.427735 0.1400831,0 0.2581941,-0.08144 0.3925781,-0.113282 -0.030922,0.0403 -0.059907,0.167329 -0.089844,0.197266 a 0.50005,0.50005 0 0 0 -0.03125,0.0332 c -0.239036,0.286843 -0.4455919,0.382813 -0.7402344,0.382813 -0.2027416,0 -0.415075,-0.06419 -0.6503907,-0.199219 C 1.422886,56.001679 1.2899425,55.857069 1.1386719,55.582031 0.98128851,55.29588 0.79050962,54.887722 0.57617187,54.367187 A 0.50005,0.50005 0 0 0 0.34375,54.173828 0.50005,0.50005 0 0 0 0.41796875,53.802734 c -0.19128999,-0.95645 -0.41604827,-1.732601 -0.6875,-2.345703 -0.12261364,-0.304168 -0.30509209,-0.540018 -0.51171875,-0.75 z m -1.0722656,0.50586 c 0.1458332,0 0.2323962,0.03286 0.3359375,0.11914 0.1035413,0.08628 0.2205631,0.244767 0.3242187,0.503906 a 0.50005,0.50005 0 0 0 0.00781,0.01758 c 0.1736369,0.390682 0.32650383,1.011635 0.47656253,1.640625 H -1.0097656 c -0.5320323,0 -0.9390844,-0.130632 -1.28125,-0.369141 -0.3432153,-0.301823 -0.46875,-0.554375 -0.46875,-0.818359 0,-0.463266 0.1097635,-0.680144 0.2753906,-0.816407 0.3097822,-0.198769 0.5512596,-0.277343 0.6308594,-0.277343 z"
       id="path48902" /></g><g
     id="path48881"
     style="fill:#ff7900;fill-opacity:1;stroke:none"><path
       style="color:#000000;fill:#ff7900;fill-opacity:1;stroke:none;stroke-linecap:round;stroke-linejoin:round;stroke-miterlimit:10;-inkscape-stroke:none"
       d="m 6.4268627,53.338226 q 0.84375,0.65625 2.15625,0.65625 1.40625,0 2.3437503,-0.9375 1.03125,-0.9375 1.03125,-2.34375 v -10.875 q 0,-0.375 -0.1875,-0.5625 -0.1875,-0.1875 -0.65625,-0.1875 h -0.5625 v -0.5625 h 3.375 v 0.5625 h -0.5625 q -0.375,0 -0.65625,0.1875 -0.1875,0.1875 -0.1875,0.5625 v 10.875 q 0,1.875 -1.3125,3 -1.2187503,1.03125 -2.8125003,1.03125 -1.6875,0 -3,-0.9375 -1.21875,-0.9375 -1.21875,-3 v -10.96875 q 0,-0.375 -0.1875,-0.5625 -0.1875,-0.1875 -0.65625,-0.1875 h -0.46875 v -0.5625 h 4.125 v 0.5625 h -0.46875 q -0.375,0 -0.65625,0.1875 -0.1875,0.1875 -0.1875,0.5625 v 10.96875 q 0,1.875 0.75,2.53125 z"
       id="path48906" /><path
       style="color:#000000;fill:#ff7900;fill-opacity:1;stroke:none;stroke-linecap:round;stroke-linejoin:round;stroke-miterlimit:10;-inkscape-stroke:none"
       d="m 2.8652344,38.025391 a 0.50005,0.50005 0 0 0 -0.5,0.5 v 0.5625 a 0.50005,0.50005 0 0 0 0.5,0.5 h 0.46875 c 0.2458331,0 0.3250482,0.06333 0.3027344,0.04102 0.00715,0.0071 0.041016,0.04232 0.041016,0.208985 v 10.96875 c 0,1.473483 0.4591577,2.663444 1.4121093,3.396484 a 0.50005,0.50005 0 0 0 0.015625,0.0098 c 0.9574721,0.683908 2.0734243,1.03125 3.2910157,1.03125 1.1703419,0 2.2402242,-0.391518 3.1347652,-1.148438 a 0.50005,0.50005 0 0 0 0.002,-0.002 c 0.979211,-0.839323 1.488281,-2.014194 1.488281,-3.380859 v -10.875 c 0,-0.130993 0.02077,-0.1453 0.0332,-0.164063 0.08743,-0.04616 0.173826,-0.08594 0.310546,-0.08594 h 0.5625 a 0.50005,0.50005 0 0 0 0.5,-0.5 v -0.5625 a 0.50005,0.50005 0 0 0 -0.5,-0.5 h -3.375 a 0.50005,0.50005 0 0 0 -0.5,0.5 v 0.5625 a 0.50005,0.50005 0 0 0 0.5,0.5 h 0.5625 c 0.245833,0 0.325049,0.06333 0.302735,0.04102 0.0071,0.0071 0.04101,0.04232 0.04101,0.208985 v 10.875 c 0,0.815277 -0.273715,1.433313 -0.86914,1.974609 a 0.50005,0.50005 0 0 0 -0.01563,0.01563 c -0.536612,0.536611 -1.1638462,0.791016 -1.9902342,0.791016 -0.784069,0 -1.3706575,-0.191246 -1.8320313,-0.544922 C 6.4324432,52.663755 6.1777344,51.982437 6.1777344,50.806641 v -10.96875 c 0,-0.130993 0.020766,-0.1453 0.033203,-0.164063 0.087427,-0.04616 0.1738264,-0.08594 0.3105469,-0.08594 h 0.46875 a 0.50005,0.50005 0 0 0 0.5,-0.5 v -0.5625 a 0.50005,0.50005 0 0 0 -0.5,-0.5 z m 1.515625,1 h 1.09375 c -0.1857753,0.233708 -0.296875,0.516761 -0.296875,0.8125 v 10.96875 c 0,1.189399 0.2433999,2.074088 0.78125,2.679687 C 5.8805769,53.437247 5.7739025,53.45874 5.6972656,53.404297 5.0288467,52.887149 4.6777344,52.079623 4.6777344,50.806641 v -10.96875 c 0,-0.295739 -0.1110997,-0.578792 -0.296875,-0.8125 z m 7.7812496,0 h 0.15625 c -0.0487,0.06127 -0.04434,0.143693 -0.07813,0.21289 -0.03379,-0.0692 -0.02942,-0.151623 -0.07813,-0.21289 z m -0.880859,14.384765 -0.01758,0.01758 c 0.0036,-0.0033 0.0042,-0.0084 0.0078,-0.01172 0.0028,-0.0028 0.007,-0.0031 0.0098,-0.0059 z"
       id="path48908" /></g><g
     id="path48883"
     style="fill:#ff7900;fill-opacity:1;stroke:none"><path
       style="color:#000000;fill:#ff7900;fill-opacity:1;stroke:none;stroke-linecap:round;stroke-linejoin:round;stroke-miterlimit:10;-inkscape-stroke:none"
       d="m 20.520613,52.681976 -0.9375,-4.125 h -4.21875 l -0.84375,3.5625 q -0.1875,0.84375 0,1.40625 0.1875,0.46875 0.84375,0.46875 h 0.28125 v 0.5625 h -3.46875 v -0.5625 h 0.28125 q 0.375,0 0.65625,-0.1875 0.28125,-0.28125 0.375,-0.84375 l 3.65625,-14.34375 1.40625,-0.46875 3.5625,14.8125 q 0.1875,0.5625 0.46875,0.84375 0.28125,0.1875 0.65625,0.1875 h 0.28125 v 0.5625 h -4.03125 v -0.5625 h 0.375 q 0.5625,0 0.65625,-0.28125 0.1875,-0.375 0,-1.03125 z m -1.03125,-4.6875 -1.875,-7.78125 h -0.09375 l -1.96875,7.78125 z"
       id="path48912" /><path
       style="color:#000000;fill:#ff7900;fill-opacity:1;stroke:none;stroke-linecap:round;stroke-linejoin:round;stroke-miterlimit:10;-inkscape-stroke:none"
       d="m 18.394531,37.675781 -1.40625,0.46875 a 0.50005,0.50005 0 0 0 -0.328125,0.351563 l -3.65625,14.34375 a 0.50005,0.50005 0 0 0 -0.0078,0.04102 c -0.04717,0.283031 -0.132375,0.430251 -0.214844,0.525391 -0.08982,0.04955 -0.18053,0.08789 -0.322266,0.08789 h -0.28125 a 0.50005,0.50005 0 0 0 -0.5,0.5 v 0.5625 a 0.50005,0.50005 0 0 0 0.5,0.5 h 3.46875 a 0.50005,0.50005 0 0 0 0.5,-0.5 v -0.5625 a 0.50005,0.50005 0 0 0 -0.5,-0.5 h -0.28125 c -0.310301,0 -0.323836,-0.03267 -0.371093,-0.150391 -0.08035,-0.254703 -0.09443,-0.618564 0.01367,-1.109375 l 0.751953,-3.177734 h 3.423828 l 0.849609,3.736328 a 0.50005,0.50005 0 0 0 0.0059,0.02734 c 0.102588,0.359058 0.07387,0.557234 0.0332,0.648438 -0.03193,0.009 -0.08525,0.02539 -0.207032,0.02539 h -0.375 a 0.50005,0.50005 0 0 0 -0.5,0.5 v 0.5625 a 0.50005,0.50005 0 0 0 0.5,0.5 h 4.03125 a 0.50005,0.50005 0 0 0 0.5,-0.5 v -0.5625 a 0.50005,0.50005 0 0 0 -0.5,-0.5 h -0.28125 c -0.144352,0 -0.237051,-0.03848 -0.328125,-0.08984 -0.102406,-0.1139 -0.219962,-0.295788 -0.320312,-0.59375 L 19.037109,38.033203 a 0.50005,0.50005 0 0 0 -0.642578,-0.357422 z m -0.201172,1.121094 3.435547,14.283203 a 0.50005,0.50005 0 0 0 0.01172,0.04102 c 0.126793,0.380378 0.306254,0.680911 0.53125,0.935547 h -1.355469 c 0.04806,-0.06081 0.123844,-0.08793 0.152344,-0.160157 0.187489,-0.405208 0.17297,-0.862379 0.0332,-1.351562 l -0.931641,-4.09961 a 0.50005,0.50005 0 0 0 -0.201171,-0.160156 0.50005,0.50005 0 0 0 0.105468,-0.408203 l -1.875,-7.78125 a 0.50005,0.50005 0 0 0 -0.484375,-0.382812 h -0.09375 A 0.50005,0.50005 0 0 0 17.349607,39.84766 L 17.5625,39.007812 Z m -0.636718,3.3125 1.298828,5.384766 h -2.660157 z m -3.517578,10.720703 c -0.0015,0.285566 -0.07618,0.601532 0.0078,0.853516 a 0.50005,0.50005 0 0 0 0.0098,0.02734 c 0.08821,0.220518 0.382483,0.215144 0.578125,0.345704 h -1.119141 c 0.237747,-0.276032 0.400001,-0.610944 0.466797,-1.011719 l -0.0078,0.04102 z"
       id="path48914" /></g><g
     id="path48885"
     style="fill:#ff7900;fill-opacity:1;stroke:none"><path
       style="color:#000000;fill:#ff7900;fill-opacity:1;stroke:none;stroke-linecap:round;stroke-linejoin:round;stroke-miterlimit:10;-inkscape-stroke:none"
       d="m 30.864363,39.463226 q 1.21875,0.9375 1.21875,2.8125 0,1.875 -1.03125,2.90625 -1.03125,1.03125 -2.34375,1.21875 l 2.8125,6.9375 q 0.1875,0.375 0.375,0.5625 0.28125,0.09375 0.5625,0.09375 h 0.5625 v 0.5625 h -2.625 l -3.09375,-8.0625 h -2.15625 v 6.75 q 0,0.375 0.1875,0.5625 0.28125,0.1875 0.65625,0.1875 h 0.5625 v 0.5625 h -4.3125 v -0.5625 h 0.5625 q 0.46875,0 0.65625,-0.1875 0.1875,-0.1875 0.1875,-0.5625 v -13.40625 q 0,-0.375 -0.1875,-0.5625 -0.1875,-0.1875 -0.65625,-0.1875 h -0.5625 v -0.5625 h 5.34375 q 2.15625,0 3.28125,0.9375 z m -5.71875,0.375 v 6.09375 h 2.0625 q 1.40625,0 2.34375,-0.84375 0.9375,-0.84375 0.9375,-2.625 0,-1.59375 -0.84375,-2.4375 -0.84375,-0.9375 -2.625,-0.9375 h -1.03125 q -0.375,0 -0.65625,0.1875 -0.1875,0.1875 -0.1875,0.5625 z"
       id="path48918" /><path
       style="color:#000000;fill:#ff7900;fill-opacity:1;stroke:none;stroke-linecap:round;stroke-linejoin:round;stroke-miterlimit:10;-inkscape-stroke:none"
       d="m 22.240234,38.025391 a 0.50005,0.50005 0 0 0 -0.5,0.5 v 0.5625 a 0.50005,0.50005 0 0 0 0.5,0.5 h 0.5625 c 0.245833,0 0.325049,0.06333 0.302735,0.04102 0.0071,0.0071 0.04102,0.04232 0.04102,0.208985 v 13.40625 c 0,0.166666 -0.03387,0.201835 -0.04102,0.208984 0.02231,-0.02231 -0.0569,0.04102 -0.302735,0.04102 h -0.5625 a 0.50005,0.50005 0 0 0 -0.5,0.5 v 0.5625 a 0.50005,0.50005 0 0 0 0.5,0.5 h 4.3125 a 0.50005,0.50005 0 0 0 0.5,-0.5 v -0.5625 a 0.50005,0.50005 0 0 0 -0.5,-0.5 h -0.5625 c -0.13672,0 -0.22312,-0.03978 -0.310547,-0.08594 -0.01244,-0.01876 -0.0332,-0.03307 -0.0332,-0.164062 v -6.25 h 1.3125 l 2.970703,7.742187 a 0.50005,0.50005 0 0 0 0.466797,0.320313 h 2.625 a 0.50005,0.50005 0 0 0 0.5,-0.5 v -0.5625 a 0.50005,0.50005 0 0 0 -0.5,-0.5 h -0.5625 c -0.08927,0 -0.181522,-0.02608 -0.273437,-0.04687 -0.0622,-0.07764 -0.129763,-0.161231 -0.212891,-0.326172 -0.0015,-0.003 -0.0024,-0.0029 -0.0039,-0.0059 L 29.33204,46.609347 c 0.74425,-0.218236 1.480698,-0.480697 2.074219,-1.074219 0.794637,-0.794636 1.177734,-1.9181 1.177734,-3.259765 0,-1.352814 -0.473661,-2.47372 -1.40625,-3.197266 -0.87039,-0.722929 -2.086417,-1.052734 -3.59375,-1.052734 z m 1.609375,1 h 1.09375 c -0.185775,0.233708 -0.296875,0.516761 -0.296875,0.8125 v 6.09375 a 0.50005,0.50005 0 0 0 0.28125,0.28125 0.50005,0.50005 0 0 0 -0.28125,0.28125 v 6.75 c 0,0.295738 0.1111,0.578791 0.296875,0.8125 h -1.09375 c 0.185776,-0.233709 0.296875,-0.516762 0.296875,-0.8125 v -13.40625 c 0,-0.295739 -0.111099,-0.578792 -0.296875,-0.8125 z m 5.47461,0.21289 c 0.497019,0.139916 0.903248,0.344829 1.220703,0.609375 a 0.50005,0.50005 0 0 0 0.01367,0.01172 c 0.684815,0.526781 1.02539,1.27435 1.02539,2.416016 0,1.158332 -0.304403,1.972372 -0.884765,2.552734 -0.183647,0.183647 -0.414195,0.181979 -0.607422,0.318359 0.57544,-0.672452 0.898437,-1.56494 0.898437,-2.683593 0,-1.14439 -0.316252,-2.104049 -0.982422,-2.777344 -0.182866,-0.201568 -0.45121,-0.303022 -0.683591,-0.447267 z m -3.333985,0.34961 h 1.03125 c 1.09978,0 1.806492,0.276527 2.251953,0.771484 a 0.50005,0.50005 0 0 0 0.01953,0.01953 c 0.451195,0.451196 0.697265,1.109721 0.697265,2.083985 0,1.099779 -0.27848,1.808444 -0.773437,2.253906 -0.532601,0.479341 -1.170313,0.714844 -2.007813,0.714844 h -1.5625 v -5.59375 c 0,-0.130993 0.02077,-0.1453 0.0332,-0.164063 0.08743,-0.04616 0.173827,-0.08594 0.310547,-0.08594 z m 2.277344,6.666015 a 0.50005,0.50005 0 0 0 -0.02344,0.333985 l 2.8125,6.9375 a 0.50005,0.50005 0 0 0 0.01758,0.03711 c 0.100077,0.200154 0.218316,0.343971 0.335937,0.494141 h -0.669922 l -2.96289,-7.720704 c 0.166247,-0.02132 0.331876,-0.04239 0.490234,-0.08203 z"
       id="path48920" /></g><g
     id="path48887"
     style="fill:#ff7900;fill-opacity:1;stroke:none"><path
       style="color:#000000;fill:#ff7900;fill-opacity:1;stroke:none;stroke-linecap:round;stroke-linejoin:round;stroke-miterlimit:10;-inkscape-stroke:none"
       d="m 32.208113,39.088226 h -0.46875 v -0.5625 h 9.1875 l 1.03125,3.1875 -0.46875,0.1875 q -0.75,-1.40625 -1.59375,-2.0625 -0.84375,-0.75 -1.875,-0.75 h -2.625 q -0.375,0 -0.65625,0.1875 -0.1875,0.1875 -0.1875,0.5625 v 5.8125 h 2.71875 q 0.9375,0 1.3125,-0.46875 0.46875,-0.46875 0.46875,-1.40625 v -0.5625 h 0.5625 v 5.53125 h -0.5625 v -0.375 q 0,-1.03125 -0.46875,-1.59375 -0.375,-0.5625 -1.3125,-0.5625 h -2.71875 v 7.03125 q 0,0.375 0.1875,0.5625 0.28125,0.1875 0.65625,0.1875 h 2.4375 q 1.40625,0 2.34375,-0.75 1.03125,-0.84375 1.59375,-2.53125 l 0.46875,0.1875 -1.03125,3.65625 h -9.5625 v -0.5625 h 0.5625 q 0.46875,0 0.65625,-0.1875 0.1875,-0.1875 0.1875,-0.5625 v -13.40625 q 0,-0.375 -0.1875,-0.5625 -0.1875,-0.1875 -0.65625,-0.1875 z"
       id="path48924" /><path
       style="color:#000000;fill:#ff7900;fill-opacity:1;stroke:none;stroke-linecap:round;stroke-linejoin:round;stroke-miterlimit:10;-inkscape-stroke:none"
       d="m 31.740234,38.025391 a 0.50005,0.50005 0 0 0 -0.5,0.5 v 0.5625 a 0.50005,0.50005 0 0 0 0.5,0.5 h 0.46875 c 0.245833,0 0.325049,0.06333 0.302735,0.04102 0.0071,0.0071 0.04102,0.04232 0.04102,0.208985 v 13.40625 c 0,0.166666 -0.03387,0.201835 -0.04102,0.208984 0.02231,-0.02231 -0.0569,0.04102 -0.302735,0.04102 h -0.5625 a 0.50005,0.50005 0 0 0 -0.5,0.5 v 0.5625 a 0.50005,0.50005 0 0 0 0.5,0.5 h 9.5625 a 0.50005,0.50005 0 0 0 0.480469,-0.363282 l 1.03125,-3.65625 a 0.50005,0.50005 0 0 0 -0.294922,-0.601562 l -0.46875,-0.1875 a 0.50005,0.50005 0 0 0 -0.660156,0.30664 c -0.353567,1.060701 -0.840809,1.813474 -1.435547,2.300782 -0.529197,0.422121 -1.180452,0.638672 -2.027344,0.638672 h -2.4375 c -0.13672,0 -0.22312,-0.03978 -0.310547,-0.08594 -0.01244,-0.01876 -0.0332,-0.03307 -0.0332,-0.164062 v -6.53125 h 2.21875 c 0.525,0 0.753158,0.124853 0.896485,0.339843 a 0.50005,0.50005 0 0 0 0.03125,0.04297 c 0.216297,0.259557 0.353515,0.661696 0.353515,1.273438 v 0.375 a 0.50005,0.50005 0 0 0 0.5,0.5 h 0.5625 a 0.50005,0.50005 0 0 0 0.5,-0.5 v -5.53125 a 0.50005,0.50005 0 0 0 -0.5,-0.5 h -0.5625 a 0.50005,0.50005 0 0 0 -0.5,0.5 v 0.5625 c 0,0.541666 -0.127617,0.858085 -0.322265,1.052734 a 0.50005,0.50005 0 0 0 -0.03711,0.04102 c -0.123029,0.153786 -0.380209,0.28125 -0.921875,0.28125 h -2.21875 v -5.3125 c 0,-0.130993 0.02077,-0.1453 0.0332,-0.164063 0.08743,-0.04616 0.173827,-0.08594 0.310547,-0.08594 h 2.625 c 0.566288,0 1.054117,0.1922 1.541016,0.625 a 0.50005,0.50005 0 0 0 0.02539,0.01953 c 0.482552,0.375318 0.982377,1.006997 1.460937,1.904297 a 0.50005,0.50005 0 0 0 0.626953,0.228515 l 0.46875,-0.1875 a 0.50005,0.50005 0 0 0 0.289063,-0.61914 l -1.03125,-3.1875 a 0.50005,0.50005 0 0 0 -0.47461,-0.345703 z m 1.515625,1 h 1.09375 c -0.185775,0.233708 -0.296875,0.516761 -0.296875,0.8125 v 5.8125 a 0.50005,0.50005 0 0 0 0.28125,0.28125 0.50005,0.50005 0 0 0 -0.28125,0.28125 v 7.03125 c 0,0.295738 0.1111,0.578791 0.296875,0.8125 h -1.09375 c 0.185776,-0.233709 0.296875,-0.516762 0.296875,-0.8125 v -13.40625 c 0,-0.295739 -0.111099,-0.578792 -0.296875,-0.8125 z m 5.867188,0 H 40.5625 l 0.488281,1.509765 c -0.277713,-0.356691 -0.523758,-0.832707 -0.833984,-1.076172 -0.316792,-0.279595 -0.726127,-0.287035 -1.09375,-0.433593 z m -0.0078,6.001953 v 1.912109 c -0.07126,-0.138422 -0.04494,-0.343309 -0.142578,-0.462891 -0.221633,-0.316424 -0.559898,-0.502007 -0.943359,-0.61914 0.323065,-0.100022 0.712568,-0.103123 0.919922,-0.353516 0.114124,-0.118337 0.08651,-0.332591 0.166015,-0.476562 z m 2.201172,7.308593 -0.486328,1.720704 H 39.18556 c 0.436123,-0.142842 0.949238,-0.139078 1.302734,-0.421875 a 0.50005,0.50005 0 0 0 0.0059,-0.0039 c 0.365877,-0.299354 0.543627,-0.869326 0.822265,-1.294922 z"
       id="path48926" /></g><g
     id="path48889"
     style="fill:#ff7900;fill-opacity:1;stroke:none"><path
       style="color:#000000;fill:#ff7900;fill-opacity:1;stroke:none;stroke-linecap:round;stroke-linejoin:round;stroke-miterlimit:10;-inkscape-stroke:none"
       d="m 48.833113,48.650726 q -0.84375,-0.9375 -2.71875,-1.78125 -2.53125,-1.125 -3.46875,-1.96875 -0.9375,-0.84375 -0.9375,-2.625 0,-1.40625 1.125,-2.625 1.21875,-1.3125 3.375,-1.3125 0.9375,0 1.78125,0.375 0.84375,0.28125 1.21875,0.28125 0.28125,0 0.46875,-0.09375 0.28125,-0.1875 0.46875,-0.5625 l 0.375,3.84375 -0.46875,0.1875 q -0.84375,-1.96875 -1.78125,-2.625 -0.84375,-0.75 -2.25,-0.75 -1.78125,0 -2.4375,1.03125 -0.65625,0.9375 -0.65625,2.0625 0,1.03125 0.5625,1.6875 0.65625,0.5625 3.375,1.78125 2.25,0.9375 3.1875,2.15625 1.03125,1.125 1.03125,2.71875 0,1.6875 -1.21875,3 -1.125,1.3125 -3.375,1.3125 -0.9375,0 -1.78125,-0.28125 -0.75,-0.375 -1.21875,-0.375 -0.28125,0 -0.5625,0.1875 -0.28125,0.1875 -0.65625,0.46875 l -0.75,-4.59375 0.5625,-0.1875 q 0.65625,2.34375 1.78125,3.28125 1.21875,0.84375 2.71875,0.84375 1.59375,0 2.34375,-0.9375 0.84375,-0.9375 0.84375,-2.71875 0,-0.9375 -0.9375,-1.78125 z"
       id="path48930" /><path
       style="color:#000000;fill:#ff7900;fill-opacity:1;stroke:none;stroke-linecap:round;stroke-linejoin:round;stroke-miterlimit:10;-inkscape-stroke:none"
       d="m 46.208984,37.837891 c -1.538947,0 -2.82964,0.489913 -3.742187,1.472656 a 0.50005,0.50005 0 0 0 -0.002,0.002 c -0.81501,0.882928 -1.25586,1.892058 -1.25586,2.962891 0,1.275218 0.346521,2.316556 1.101563,2.996093 0.708894,0.638005 1.891783,1.295547 3.599609,2.054688 1.212397,0.545579 2.061585,1.114651 2.550781,1.658203 a 0.50005,0.50005 0 0 0 0.03711,0.03711 c 0.556556,0.500901 0.773437,0.951824 0.773437,1.410157 0,1.108551 -0.259631,1.876804 -0.716797,2.384765 a 0.50005,0.50005 0 0 0 -0.01758,0.02148 c -0.392074,0.490093 -0.988665,0.75 -1.953125,0.75 -0.899664,0 -1.68885,-0.247644 -2.417968,-0.748047 -0.62213,-0.528417 -1.183435,-1.518406 -1.601563,-3.011719 a 0.50005,0.50005 0 0 0 -0.638672,-0.339844 l -0.5625,0.1875 a 0.50005,0.50005 0 0 0 -0.335937,0.554688 l 0.75,4.59375 a 0.50005,0.50005 0 0 0 0.792968,0.320312 c 0.244667,-0.1835 0.457934,-0.335236 0.634766,-0.453125 0.123496,-0.08233 0.208768,-0.103515 0.285156,-0.103515 0.179167,0 0.531409,0.0909 0.994141,0.322265 a 0.50005,0.50005 0 0 0 0.06641,0.02734 c 0.615204,0.205068 1.264454,0.306641 1.939453,0.306641 1.592571,0 2.886877,-0.486306 3.744141,-1.480469 0.881187,-0.951947 1.349609,-2.089572 1.349609,-3.332031 0,-1.162273 -0.395746,-2.203272 -1.152343,-3.03711 -0.703907,-0.907048 -1.830455,-1.652706 -3.363282,-2.292969 l -0.01172,-0.0059 c -1.764129,-0.791638 -2.866415,-1.401653 -3.197266,-1.675781 -0.277905,-0.335421 -0.431641,-0.749071 -0.431641,-1.332031 0,-0.652778 0.180836,-1.227366 0.564453,-1.775391 a 0.50005,0.50005 0 0 0 0.01367,-0.01758 c 0.327493,-0.514632 0.924618,-0.800781 2.015625,-0.800781 0.848611,0 1.456607,0.216636 1.916016,0.625 a 0.50005,0.50005 0 0 0 0.04687,0.03516 c 0.490294,0.343205 1.063411,1.14275 1.607422,2.412109 a 0.50005,0.50005 0 0 0 0.646484,0.267578 l 0.46875,-0.1875 a 0.50005,0.50005 0 0 0 0.310547,-0.513672 l -0.375,-3.84375 a 0.50005,0.50005 0 0 0 -0.943359,-0.173828 c -0.08852,0.177043 -0.182443,0.274586 -0.277344,0.34375 -0.04059,0.01629 -0.09789,0.03516 -0.212891,0.03516 -0.125,0 -0.519129,-0.07539 -1.060547,-0.25586 l 0.04492,0.01758 C 47.568055,37.977946 46.90065,37.837891 46.208984,37.837891 Z m 2.347657,1.496093 0.02539,0.02148 c 0.200131,0.04371 0.456264,0.138672 0.626953,0.138672 0.188778,0 0.363947,-0.05245 0.53711,-0.113282 l 0.189453,1.955078 c -0.426332,-0.779758 -0.835562,-1.60891 -1.365235,-1.984375 -4.28e-4,-3.71e-4 -0.0015,3.71e-4 -0.002,0 -0.0046,-0.0033 -0.0071,-0.01432 -0.01172,-0.01758 z m -5.382813,0.404297 c -0.0028,0.004 -0.0011,0.0096 -0.0039,0.01367 -0.0018,0.0028 -0.006,0.0031 -0.0078,0.0059 z m -0.373047,1.171875 c -0.125798,0.394467 -0.373047,0.753164 -0.373047,1.177735 0,0.778408 0.222421,1.477915 0.681641,2.013671 a 0.50005,0.50005 0 0 0 0.05469,0.05469 c 0.561065,0.480913 1.671098,1.03932 3.496094,1.857422 a 0.50005,0.50005 0 0 0 0.01172,0.0039 c 1.451751,0.604896 2.439461,1.291613 2.984375,2 a 0.50005,0.50005 0 0 0 0.02734,0.0332 c 0.608027,0.663303 0.90039,1.426204 0.90039,2.38086 0,0.933182 -0.33345,1.733826 -0.96875,2.482421 0.404213,-0.681949 0.65625,-1.487627 0.65625,-2.482421 0,-0.781061 -0.405403,-1.506285 -1.082031,-2.125 -0.63587,-0.701733 -1.588404,-1.316247 -2.869141,-1.892579 a 0.50005,0.50005 0 0 0 -0.002,-0.002 c -1.66604,-0.740462 -2.797076,-1.396079 -3.33789,-1.882812 -0.494958,-0.445462 -0.771485,-1.154127 -0.771485,-2.253906 0,-0.480313 0.357512,-0.916699 0.591797,-1.365235 z m -0.480469,11.041016 c 0.337181,0.673952 0.72596,1.24173 1.199219,1.644531 -0.009,-1.29e-4 -0.02031,-0.0078 -0.0293,-0.0078 -0.29861,0 -0.58834,0.103815 -0.839843,0.271484 -0.0046,0.0031 -0.01096,0.0086 -0.01563,0.01172 z m 6.996094,1.511719 -0.01758,0.02148 c 0.0035,-0.0038 0.0044,-0.0098 0.0078,-0.01367 0.0027,-0.0033 0.0071,-0.0045 0.0098,-0.0078 z"
       id="path48932" /></g></g><g
   id="g48875"
   transform="translate(2.198484,-0.3245665)"><ellipse
     style="fill:url(#radialGradient43465);fill-opacity:1;stroke:none;stroke-width:0.79748;stroke-linejoin:bevel;stroke-miterlimit:10;stop-color:#000000"
     id="path43426"
     cx="71.856438"
     cy="78.345535"
     rx="50.045078"
     ry="50.045387" /><path
     style="fill:#000000;fill-opacity:1;stroke:none;stroke-width:0.10813"
     d="m 43.963769,119.91758 c -5.640018,-3.83514 -10.274101,-8.54068 -14.06575,-14.28262 -4.484183,-6.790681 -7.359225,-15.303582 -7.951684,-23.544649 -0.487756,-6.784592 0.346657,-13.38706 2.499172,-19.775238 2.425734,-7.19905 6.65272,-14.03184 11.92032,-19.268817 10.313045,-10.2531 24.135121,-15.51216 38.518926,-14.655779 6.588942,0.392298 12.895349,2.056991 19.112592,5.045137 1.677161,0.806075 5.487304,3.077307 6.920315,4.125198 5.05501,3.696503 9.17038,7.944456 12.48826,12.890591 1.4556,2.169962 2.27463,3.589986 3.39623,5.888439 4.85728,9.953835 6.28817,21.060308 4.10508,31.863467 -1.15183,5.699892 -2.77426,9.97586 -5.73345,15.110731 -2.49327,4.32639 -4.89117,7.45932 -8.15283,10.65194 -6.53884,6.40045 -14.190713,10.6872 -23.108603,12.94595 -7.306166,1.85053 -15.044112,1.96591 -22.683833,0.33826 -5.959426,-1.26967 -12.323365,-3.97254 -17.264745,-7.33261 z m 8.142893,2.14372 c 1.01696,0.48112 2.392892,1.09168 3.057667,1.35677 1.208668,0.48195 1.208668,0.48195 1.78393,0.20706 0.31639,-0.15118 0.592632,-0.30504 0.61388,-0.34191 0.02127,-0.0369 -0.425594,-0.26031 -0.993002,-0.49651 -2.145605,-0.89335 -4.471281,-2.02966 -7.119087,-3.47831 -2.737836,-1.49792 -2.737836,-1.49792 -2.876008,-1.12967 -0.07596,0.20254 -0.180196,0.44228 -0.23159,0.53279 -0.0859,0.15164 0.06483,0.25577 1.910865,1.31979 1.102377,0.63539 2.836363,1.54895 3.853338,2.03004 z m -6.92809,-4.14548 c 0.05142,-0.0905 0.155871,-0.33093 0.232219,-0.53426 0.138694,-0.36975 0.138694,-0.36975 -1.307982,-1.35525 -2.465424,-1.67949 -5.633913,-4.1453 -7.197679,-5.60144 -0.285762,-0.26604 -0.550562,-0.47544 -0.588483,-0.46525 -0.03793,0.0102 0.02855,0.35313 0.147725,0.76208 0.237358,0.81447 0.249695,0.82845 2.383095,2.69871 1.758832,1.54191 4.3923,3.54825 5.658682,4.31116 0.494256,0.29781 0.592653,0.32475 0.672451,0.18426 z m 14.816968,7.20846 c 3.022352,0.90756 6.789871,1.64457 7.935775,1.55242 0.381386,-0.0307 0.686476,-0.0817 0.677976,-0.11329 -0.0085,-0.0317 -0.485768,-0.15621 -1.060597,-0.27685 -1.459732,-0.30633 -4.876064,-1.25953 -6.492529,-1.81149 -0.745611,-0.2546 -1.462352,-0.49623 -1.59274,-0.53699 -0.269373,-0.0842 -1.338053,0.53551 -1.129445,0.65493 0.06535,0.0374 0.813095,0.27649 1.66156,0.53127 z M 34.796095,109.18586 c -0.0085,-0.69203 -0.06677,-0.80249 -0.827174,-1.56815 -0.846978,-0.85283 -3.329772,-3.64834 -3.539185,-3.98494 -0.07209,-0.11588 -0.160995,-0.20268 -0.197604,-0.19284 -0.09414,0.0253 0.818428,1.42465 1.730608,2.65372 0.582708,0.78515 2.616125,3.25599 2.811663,3.41651 0.01426,0.0117 0.02403,-0.13425 0.02172,-0.32434 z m 20.094872,11.36963 c 0.897719,0.40755 2.179609,0.95975 2.848666,1.22712 1.116516,0.44619 1.236741,0.47218 1.463064,0.31625 0.255174,-0.1758 1.447141,-1.30356 1.855117,-1.7552 0.232125,-0.25695 0.232125,-0.25695 -0.213834,-0.41504 -0.760155,-0.26946 -4.15436,-1.7851 -5.720556,-2.55444 -0.820082,-0.40285 -2.628529,-1.38806 -4.018772,-2.18936 l -2.527725,-1.45693 -0.179898,0.42674 c -0.09895,0.2347 -0.393342,0.85902 -0.654255,1.38736 l -0.474379,0.96061 2.995181,1.65595 c 1.647317,0.91081 3.729663,1.98939 4.627369,2.39694 z m -8.126243,-6.15604 c 0.356277,-0.70416 0.622895,-1.32842 0.592507,-1.38721 -0.03039,-0.0588 -0.573448,-0.44352 -1.206766,-0.85504 -2.482217,-1.61276 -6.241985,-4.53143 -8.506753,-6.60367 -0.583155,-0.5336 -1.081113,-0.96456 -1.106581,-0.95772 -0.06611,0.0178 -0.292006,1.43735 -0.378747,2.38011 -0.0836,0.90858 -0.185946,0.75223 1.477805,2.25765 1.500102,1.35736 3.260704,2.78717 5.011782,4.07012 1.946584,1.42621 2.149894,1.56846 2.884064,2.01796 l 0.58492,0.35814 z m 15.963237,9.16924 c 2.122612,0.67336 4.209387,1.20264 6.40152,1.62369 2.670515,0.51294 2.758124,0.51417 3.676714,0.0516 1.005123,-0.50611 2.241993,-1.25079 2.157962,-1.29923 -0.03518,-0.0203 -0.629183,-0.1431 -1.31991,-0.27289 -3.058105,-0.57461 -5.994679,-1.3438 -9.113834,-2.38723 l -1.872558,-0.6264 -0.860218,0.87703 c -1.401441,1.42883 -1.322196,1.32044 -1.032049,1.41164 0.138653,0.0436 1.021711,0.32339 1.962373,0.62178 z M 34.898512,105.88731 c 0.03733,-0.31121 0.154418,-0.99212 0.260192,-1.51314 0.19231,-0.94732 0.19231,-0.94732 -0.811213,-1.9872 -2.168324,-2.24689 -4.859652,-5.510021 -6.082976,-7.375401 -0.295783,-0.45102 -0.403718,-0.55805 -0.425223,-0.42169 -0.04788,0.30351 0.102259,2.29738 0.220582,2.92939 0.124617,0.66563 0.877488,1.87751 2.562822,4.125291 0.942912,1.2576 4.041754,4.85323 4.156176,4.82248 0.02845,-0.008 0.08228,-0.26855 0.11964,-0.57973 z m -4.752931,-2.59561 c 0.01483,-0.0257 0.006,-0.059 -0.01981,-0.0739 -0.02577,-0.0149 -0.05896,-0.006 -0.07384,0.0199 -0.01488,0.0258 -0.006,0.059 0.01981,0.0739 0.02577,0.0149 0.05896,0.006 0.07384,-0.0199 z m 24.251193,12.16654 c 2.784603,1.43135 7.581466,3.5717 7.845613,3.50073 0.09724,-0.0261 1.716211,-2.07234 2.331683,-2.94688 0.398429,-0.5661 0.443031,-0.67112 0.316191,-0.74423 -0.08118,-0.0468 -0.86253,-0.38553 -1.73627,-0.7527 -2.990145,-1.25656 -5.039551,-2.26395 -8.412543,-4.13518 l -3.375177,-1.87243 -0.904482,1.67588 c -1.147992,2.12711 -1.208358,2.28114 -0.973701,2.48449 0.362817,0.31439 2.921562,1.76888 4.908657,2.79035 z m -5.271507,-5.62643 c 0.589482,-1.08458 1.060377,-2.01355 1.046475,-2.06436 -0.01397,-0.0508 -0.692919,-0.54181 -1.508919,-1.09112 -3.473747,-2.33843 -7.689215,-5.69209 -10.037116,-7.985151 -0.204762,-0.19997 -0.230024,-0.19721 -0.300811,0.033 -0.04251,0.13824 -0.202498,0.57232 -0.355553,0.9646 -0.455053,1.166281 -1.061995,3.103781 -1.020571,3.257911 0.09702,0.36106 4.197082,3.89722 6.63435,5.72192 1.002955,0.75087 3.571075,2.56119 4.2287,2.98089 0.241703,0.1542 0.241703,0.1542 1.313445,-1.81773 z m 29.643799,16.18947 c 3.247048,-0.12304 5.008838,-0.46899 6.955554,-1.36585 0.421209,-0.19405 0.421209,-0.19405 0.03588,-0.1716 -1.973722,0.11499 -3.345041,0.10606 -5.713882,-0.0373 -1.523664,-0.0922 -2.813742,-0.19247 -2.866848,-0.2229 -0.05308,-0.0305 -0.674603,0.34427 -1.381097,0.83266 l -1.284536,0.888 1.493656,0.0625 c 0.82151,0.0344 2.064076,0.0409 2.761268,0.0145 z m -13.531072,-5.94193 c 3.27025,1.08117 6.654578,1.92576 9.79744,2.44505 0.752094,0.12427 1.444035,0.20591 1.537649,0.18142 0.204487,-0.0534 1.259043,-1.01604 2.294214,-2.09415 1.278218,-1.33121 1.215238,-1.24883 0.979121,-1.28052 -3.016063,-0.4047 -7.581415,-1.53361 -11.502662,-2.84437 l -1.9359,-0.64713 -0.416332,0.56672 c -0.957588,1.30346 -2.128131,2.83997 -2.260436,2.96717 -0.07805,0.0751 -0.119967,0.14926 -0.09276,0.16494 0.02694,0.0155 0.746931,0.259 1.599876,0.54099 z M 35.780867,101.74292 c 0.02776,-0.0482 0.162887,-0.43361 0.300278,-0.85656 0.1374,-0.42296 0.480604,-1.364101 0.762677,-2.091431 0.28208,-0.72733 0.506779,-1.33155 0.499321,-1.34271 -0.0074,-0.0112 -0.386639,-0.39612 -0.842624,-0.85548 -2.382368,-2.399968 -5.634606,-6.374398 -7.247703,-8.857127 -0.26977,-0.415211 -0.26977,-0.415211 -0.358267,-0.118661 -0.203984,0.683638 -0.677006,2.810634 -0.798342,3.589774 -0.130802,0.839993 -0.130802,0.839993 0.95774,2.490213 1.559922,2.364811 3.86717,5.212021 6.274939,7.743492 0.361427,0.37998 0.392991,0.40084 0.451986,0.29849 z m -9.285311,-8.193772 c 0.04801,-1.108352 0.02277,-1.273863 -0.267478,-1.754119 -0.261831,-0.433223 -1.464601,-2.803872 -2.075194,-4.090188 -0.131504,-0.277033 -0.0288,0.280255 0.361993,1.964172 0.281784,1.214204 1.737085,5.155176 1.888638,5.114446 0.02148,-0.006 0.06289,-0.561207 0.09204,-1.234311 z m 53.764588,29.572572 c 2.632142,0.15392 6.394603,1.7e-4 8.210278,-0.3355 0.826591,-0.15281 1.062131,-0.25376 1.719078,-0.73675 0.794559,-0.58418 2.617771,-2.10107 2.702938,-2.24884 0.02707,-0.047 -0.756709,-0.0269 -1.741691,0.0444 -2.770637,0.20077 -5.454429,0.16617 -8.108941,-0.10453 -1.3798,-0.14071 -1.3798,-0.14071 -1.78721,0.32623 -0.509627,0.58409 -2.437325,2.59046 -2.654136,2.76246 -0.205999,0.16336 -0.03606,0.19333 1.659684,0.29248 z M 58.828283,111.01771 c 1.72203,0.86465 3.899966,1.84815 6.061637,2.73725 0.651275,0.26793 0.969849,0.34919 1.065166,0.27189 0.07478,-0.0607 0.804473,-1.2095 1.621527,-2.55297 1.445233,-2.37628 1.479868,-2.44398 1.274904,-2.49128 -0.33401,-0.0771 -3.263522,-1.32543 -5.151311,-2.19514 -0.973048,-0.44831 -3.240826,-1.6375 -5.199227,-2.72643 l -3.473403,-1.93136 -1.475719,2.56033 -1.475729,2.56034 1.124625,0.68319 c 1.623086,0.98606 3.524374,2.02791 5.62757,3.08411 z m -6.469371,-7.07291 1.503983,-2.60936 -1.063271,-0.69953 c -3.360319,-2.210671 -6.829518,-4.907861 -9.97042,-7.751683 -0.528773,-0.47876 -1.006869,-0.896673 -1.062438,-0.928702 -0.150601,-0.0868 -2.79062,4.967964 -2.722935,5.213604 0.03294,0.11952 2.569771,2.41062 3.85985,3.485931 1.624192,1.35381 4.286628,3.3627 5.953908,4.49242 1.511874,1.02442 1.961023,1.33664 1.982567,1.37817 0.0079,0.0161 0.691569,-1.14572 1.518758,-2.58087 z m 15.862889,11.05152 c 3.553501,1.24988 8.686812,2.54384 11.870992,2.99234 0.972539,0.13698 0.972539,0.13698 1.530002,-0.58369 0.75064,-0.9704 2.771744,-3.98755 2.742935,-4.09473 -0.01266,-0.0471 -0.726774,-0.21061 -1.586924,-0.36329 -3.82893,-0.67967 -7.520901,-1.64882 -11.209517,-2.94256 l -1.20352,-0.42212 -1.422423,2.32168 c -0.782368,1.27689 -1.50233,2.40196 -1.600025,2.50011 -0.211356,0.2123 -0.221828,0.20524 0.878482,0.59221 z M 27.045294,89.387939 c 0.06966,-0.365821 0.31972,-1.334863 0.555697,-2.153445 0.235978,-0.818581 0.421813,-1.501103 0.412964,-1.516718 -0.0089,-0.01552 -0.226548,-0.394061 -0.483761,-0.841001 -1.145448,-1.990283 -2.393026,-4.788737 -3.065717,-6.876724 -0.165337,-0.513169 -0.319942,-0.944182 -0.343569,-0.9578 -0.08555,-0.04931 -0.34321,1.643662 -0.450068,2.957204 -0.104267,1.281654 -0.08746,1.424457 0.362735,3.081844 0.259634,0.955855 0.688959,2.290684 0.954042,2.966285 0.501687,1.278601 1.795458,4.041894 1.881574,4.018756 0.0272,-0.0073 0.106446,-0.312601 0.176103,-0.678401 z m 11.272054,5.97726 c 0.194949,-0.41961 0.803011,-1.613729 1.351264,-2.653573 0.996825,-1.890624 0.996825,-1.890624 0.670757,-2.21244 -2.531375,-2.498344 -5.283753,-5.793328 -7.341632,-8.788909 l -1.039356,-1.512959 -0.385128,0.802375 c -0.784279,1.633971 -1.408891,3.018901 -1.713008,3.798185 -0.312682,0.801217 -0.312682,0.801217 0.81875,2.519291 1.278356,1.941159 3.170903,4.367872 4.915973,6.303471 1.348599,1.495849 2.144925,2.350409 2.276814,2.443309 0.05976,0.0425 0.212468,-0.19699 0.445582,-0.69874 z M 85.45538,118.52078 c 2.758144,0.14004 5.00664,0.0718 7.362184,-0.2233 1.743126,-0.21841 1.743126,-0.21841 2.195851,-0.73244 0.566128,-0.64278 1.830623,-2.30968 2.549339,-3.36062 l 0.545464,-0.79758 -0.79355,0.10322 c -2.870661,0.37341 -7.52535,0.3754 -10.614853,0.005 -0.717756,-0.0861 -0.717756,-0.0861 -1.358118,0.89545 -0.998899,1.53121 -2.333654,3.46997 -2.533331,3.67971 -0.161496,0.16966 -0.152747,0.19693 0.08103,0.25214 0.144172,0.034 1.298875,0.11455 2.566006,0.17889 z M 62.640854,104.7278 c 1.828988,0.91696 4.120515,1.95426 5.829279,2.63872 l 1.176884,0.47141 1.676774,-2.95341 c 0.922277,-1.62435 1.686188,-3.0124 1.697546,-3.08457 0.01513,-0.0957 -0.438475,-0.32036 -1.679449,-0.83145 -3.067046,-1.263261 -5.163091,-2.287971 -8.67616,-4.241631 l -3.42606,-1.90522 -1.745493,3.02838 -1.745483,3.028361 0.800353,0.50609 c 1.097541,0.694 4.161796,2.37568 6.091715,3.34332 z m -6.260632,-7.759491 c 0.98294,-1.71078 2.222842,-3.814157 2.755335,-4.674174 0.532478,-0.860014 2.0555,-3.351923 3.384495,-5.537562 1.328971,-2.185653 3.339823,-5.43539 4.468506,-7.221664 1.128683,-1.786274 2.788694,-4.423866 3.688917,-5.861318 0.900245,-1.437441 1.825669,-2.883775 2.056543,-3.214044 0.419762,-0.600494 0.419762,-0.600494 0.05058,-0.813281 -1.293602,-0.745605 -4.73002,-3.368866 -6.739706,-5.144897 -0.682174,-0.602859 -1.336729,-1.172418 -1.454581,-1.265684 -0.117839,-0.09329 -0.420055,-0.397196 -0.671558,-0.675399 -0.251507,-0.278207 -0.841716,-0.910696 -1.311574,-1.40553 -1.504105,-1.584044 -3.0551,-3.527941 -4.293302,-5.380861 -0.340901,-0.510154 -0.631077,-0.908029 -0.644831,-0.884166 -0.04015,0.06967 -0.717341,-1.003605 -0.749527,-1.18791 -0.01608,-0.09217 -0.305783,-0.707086 -0.643751,-1.366481 -0.875477,-1.708103 -1.404433,-3.011729 -1.849401,-4.557888 -0.387695,-1.347164 -0.387695,-1.347164 -0.705002,-1.221491 -2.794456,1.106814 -5.879397,2.553776 -7.338751,3.442182 -0.463355,0.282073 -0.948832,0.546597 -1.078834,0.587819 -0.404685,0.12833 -3.342858,2.007137 -5.010157,3.203726 -2.540803,1.823484 -5.772786,4.692564 -7.203116,6.394317 -0.310937,0.369932 -0.676677,0.80499 -0.812774,0.966797 -0.136104,0.161803 -0.4519,0.513329 -0.70179,0.781157 -0.670589,0.718714 -1.917932,2.407217 -2.846807,3.853663 l -0.817506,1.273006 0.277631,1.195334 c 0.621977,2.677877 2.353756,6.908665 3.714569,9.074777 0.669485,1.065675 0.849817,1.37421 0.907634,1.552954 0.09091,0.281038 1.923644,2.961747 2.940947,4.301663 1.711936,2.254813 4.281155,5.152583 5.970709,6.734215 0.378979,0.354772 0.882965,0.844545 1.119965,1.088362 1.218812,1.253935 4.910342,4.346588 7.153971,5.993418 1.896838,1.39226 4.326906,3.047321 4.505675,3.068681 0.04971,0.006 0.894552,-1.388931 1.877497,-3.099721 z m 38.748395,23.963051 c 1.394632,-0.60602 3.447461,-1.79606 4.542418,-2.6333 0.357955,-0.2737 0.357955,-0.2737 -0.366442,-0.024 -0.398407,0.13733 -1.504423,0.44955 -2.457808,0.6938 -0.953385,0.24426 -1.772462,0.51181 -1.820167,0.59458 -0.08463,0.14683 -1.826071,1.854 -2.18602,2.143 -0.245375,0.19701 1.103243,-0.25925 2.288019,-0.77407 z M 29.114606,83.005521 c 0.185629,-0.457152 0.701211,-1.520156 1.14575,-2.362226 0.44456,-0.842047 0.812478,-1.61549 0.817651,-1.718743 0.0052,-0.103218 -0.288323,-0.730052 -0.652198,-1.392914 -1.322422,-2.409027 -2.325618,-4.751362 -3.095912,-7.228624 l -0.421479,-1.355462 -0.449426,0.941085 c -0.59621,1.248439 -1.496952,3.605147 -1.557804,4.075851 -0.06436,0.497926 0.721424,3.361878 1.409201,5.136072 0.679985,1.754111 2.244822,4.933212 2.372461,4.819867 0.05184,-0.04607 0.246132,-0.45775 0.431762,-0.914902 z m 42.966342,25.728359 c 3.614071,1.27119 7.952632,2.38515 11.605856,2.97991 l 1.528153,0.24878 0.830257,-1.59026 c 0.78245,-1.4985 2.18683,-4.47616 2.159383,-4.57831 -0.007,-0.0258 -0.761649,-0.17325 -1.677188,-0.32786 -3.1898,-0.53862 -7.325571,-1.6166 -10.706931,-2.79073 l -1.495029,-0.51912 -0.298345,0.64738 c -0.164038,0.35609 -0.895188,1.74957 -1.624628,3.09669 -0.729471,1.34711 -1.295391,2.4671 -1.257677,2.48884 0.03778,0.0218 0.458983,0.17683 0.936132,0.34467 z m 17.372036,3.6138 c 2.619622,0.1483 5.415898,0.0735 7.68093,-0.20554 l 1.730869,-0.2132 0.737473,-1.31254 c 0.702844,-1.25106 1.992654,-4.0615 2.068504,-4.50726 0.0319,-0.18683 -0.0603,-0.19814 -0.83289,-0.10197 -2.869874,0.35723 -6.788621,0.38679 -9.77239,0.0737 -0.679645,-0.0713 -1.279884,-0.11789 -1.333858,-0.10351 -0.05401,0.0144 -0.356004,0.60765 -0.670687,1.31862 -0.31486,0.71088 -0.864215,1.85448 -1.2207,2.54135 -0.356533,0.68686 -0.751919,1.47978 -0.8787,1.76202 -0.228342,0.50831 -0.227635,0.51369 0.07426,0.57094 0.167666,0.0318 1.255404,0.11162 2.417237,0.17741 z m 10.433761,4.24581 c 2.026205,-0.7731 4.380335,-2.12273 5.258835,-3.01492 0.58381,-0.59289 2.27269,-2.68538 2.35146,-2.9134 0.046,-0.13303 -0.11255,-0.094 -0.55803,0.13739 -1.19788,0.62225 -3.20198,1.34695 -5.12706,1.85401 l -1.94162,0.5114 -0.737067,1.1272 c -0.708042,1.08265 -1.624541,2.37893 -2.127604,3.00903 -0.237856,0.29792 -0.234465,0.29785 0.832553,-0.0194 0.589273,-0.17518 1.511127,-0.48628 2.04855,-0.69134 z M 64.553037,96.228389 c 1.397047,0.74036 3.291149,1.6928 4.209149,2.11645 2.030173,0.93688 4.759641,2.068781 4.893784,2.029431 0.176191,-0.0517 3.390081,-6.930091 3.270294,-6.999134 -0.03526,-0.02032 -0.561997,-0.237564 -1.170521,-0.482775 -2.648422,-1.067177 -5.223998,-2.317573 -8.44423,-4.09951 l -3.280425,-1.81527 -0.543056,0.823176 c -0.298671,0.452762 -1.213042,1.937281 -2.031944,3.298938 l -1.488893,2.47575 0.845307,0.528422 c 0.464932,0.2906 0.925222,0.584642 1.022882,0.653392 0.09765,0.0688 1.320577,0.7308 2.717633,1.47117 z m 12.583779,5.438901 c 2.191884,0.72574 4.146796,1.27565 6.354751,1.78754 1.806344,0.41877 5.006916,0.9996 5.225216,0.94825 0.254323,-0.0598 2.727246,-7.028401 2.533738,-7.139931 -0.04817,-0.0278 -0.774426,-0.16576 -1.613943,-0.30668 -2.801891,-0.47032 -6.441968,-1.41071 -9.604286,-2.48122 -1.723082,-0.583301 -1.723082,-0.583301 -1.88354,-0.254828 -0.0883,0.180628 -0.611193,1.304248 -1.162102,2.496858 -0.5509,1.19262 -1.222321,2.61686 -1.492041,3.165 -0.427379,0.868651 -0.468819,1.009031 -0.322633,1.093291 0.09228,0.0532 0.976457,0.36446 1.96484,0.69172 z M 24.657499,70.518416 c 0.08134,-0.21053 0.522216,-1.145087 0.979778,-2.076769 0.831921,-1.693971 0.831921,-1.693971 0.717508,-2.519364 -0.142441,-1.027658 -0.225309,-2.210837 -0.231261,-3.302141 -0.0025,-0.460997 -0.03531,-0.786588 -0.07287,-0.723524 -0.132839,0.222462 -0.876325,2.600301 -1.116818,3.57046 -0.134002,0.540546 -0.299048,1.428262 -0.366775,1.972686 -0.11758,0.945209 -0.188351,3.385989 -0.09966,3.43711 0.02324,0.0134 0.108777,-0.147913 0.190065,-0.358473 z m 79.979661,39.793354 c 1.4228,-0.56848 2.86791,-1.30363 3.93437,-2.00146 0.91501,-0.59873 0.91501,-0.59873 1.70369,-2.20344 0.70549,-1.43546 1.02453,-2.16202 1.43581,-3.26985 0.12694,-0.342 0.12587,-0.34174 -0.90153,0.21029 -1.50083,0.80639 -3.51119,1.56628 -5.62089,2.12463 l -1.85494,0.49092 -0.62716,1.573 c -0.34494,0.86514 -0.87996,2.07316 -1.18892,2.68447 -0.90688,1.7943 -0.95672,1.70653 0.69105,1.21657 0.78123,-0.23228 1.87406,-0.60359 2.42852,-0.82513 z m -12.004882,-5.50053 c 3.154882,0.20583 5.343885,0.14882 8.381162,-0.21827 1.25256,-0.15139 1.25256,-0.15139 1.41603,-0.56789 0.28172,-0.71776 1.12798,-3.77389 1.45562,-5.256731 l 0.31383,-1.42037 -0.63284,0.0801 c -1.06483,0.13475 -3.580875,0.31155 -4.643733,0.32633 -1.166479,0.0162 -4.312031,-0.12794 -5.380507,-0.24658 -0.403217,-0.0448 -0.759473,-0.0357 -0.791694,0.0202 -0.03223,0.0559 -0.408668,1.14155 -0.836528,2.41256 -0.427872,1.271011 -0.979663,2.826491 -1.226188,3.456641 -0.277407,0.70906 -0.406423,1.1698 -0.338507,1.20894 0.06039,0.0348 1.087851,0.12706 2.283355,0.20505 z m -62.4528,-43.37219 c 0.47568,-0.583868 0.909505,-1.139689 0.964056,-1.235159 0.05454,-0.09549 0.04097,-0.644979 -0.03018,-1.221131 -0.237173,-1.920373 -0.231402,-3.424114 0.02272,-5.915928 0.03606,-0.353627 0.03606,-0.353627 -0.333772,0.11964 -0.950941,1.216898 -2.21991,3.211393 -2.451556,3.853212 -0.609128,1.68773 -0.95971,4.620236 -0.816916,6.833231 l 0.06876,1.065461 0.85601,-1.218876 c 0.470813,-0.670382 1.245208,-1.696578 1.720883,-2.28045 z m 42.531007,28.633169 c 6.136662,2.807784 11.655151,4.57073 17.496106,5.58933 0.717301,0.12509 1.363389,0.21352 1.435771,0.19651 0.135722,-0.0319 0.380894,-0.84247 0.978379,-3.234198 0.396692,-1.588044 1.231116,-5.363485 1.308981,-5.922614 0.03099,-0.222386 0.189803,-1.226015 0.352954,-2.230268 0.392501,-2.41601 0.81696,-5.956595 0.720748,-6.01205 -0.04211,-0.02427 -0.551821,-0.120007 -1.132693,-0.212743 -2.015455,-0.321766 -5.343895,-1.182201 -7.599635,-1.96459 -0.60263,-0.20902 -1.170344,-0.393308 -1.26161,-0.409545 -0.327897,-0.05834 -4.400487,-1.850384 -5.969957,-2.626939 -0.881268,-0.436048 -2.32207,-1.207571 -3.201756,-1.714489 l -1.599454,-0.921638 -1.609326,2.535764 c -0.885136,1.394667 -2.630308,4.165707 -3.878169,6.15786 -1.247856,1.992155 -2.668293,4.255388 -3.156519,5.029402 l -0.8877,1.407285 3.384687,1.884032 c 1.861585,1.036193 3.940215,2.138197 4.619191,2.448855 z m 32.982375,13.550791 c 2.4988,-0.77797 4.45953,-1.65857 6.08655,-2.73356 l 0.80386,-0.53111 0.34948,-1.344961 c 0.34912,-1.34355 0.79822,-3.58591 0.91563,-4.57176 l 0.0622,-0.521959 -0.52365,0.318369 c -1.52166,0.92512 -3.8868,1.87124 -6.11735,2.44711 l -1.62849,0.42044 -0.36055,1.67806 c -0.1983,0.92293 -0.5909,2.482481 -0.87245,3.465651 -0.45693,1.5956 -0.48912,1.78831 -0.29967,1.79427 0.11674,0.004 0.82976,-0.18557 1.58448,-0.42055 z m -9.823088,-7.333931 c 2.22928,0.13085 4.292008,0.0973 6.327848,-0.10306 2.42025,-0.23814 2.22757,-0.16116 2.35863,-0.94245 0.21568,-1.285768 0.46216,-3.451969 0.60138,-5.285393 l 0.14042,-1.849163 -0.64188,0.0807 c -2.44957,0.30796 -4.873701,0.359571 -7.665675,0.163198 l -1.957842,-0.137706 -0.49062,2.208525 c -0.26984,1.214687 -0.698357,2.982145 -0.952263,3.927682 -0.536657,1.998529 -0.822578,1.755539 2.280002,1.937669 z m 18.068878,6.417461 c 0.613,-0.99645 1.24571,-2.1084 1.406,-2.47102 l 0.29139,-0.659341 -0.94186,0.823741 c -0.94187,0.82372 -0.94187,0.82372 -1.3959,2.10243 -0.24971,0.70328 -0.58099,1.57058 -0.73617,1.92731 -0.27186,0.62507 -0.27228,0.63843 -0.0101,0.3686 0.1496,-0.15402 0.7736,-1.09529 1.38661,-2.09173 z M 33.420358,57.837218 c 0.466337,-0.474389 1.524137,-1.451281 2.350657,-2.170878 0.82652,-0.719597 1.573512,-1.381397 1.65998,-1.470673 0.105673,-0.109145 0.124316,-0.384658 0.05682,-0.840888 -0.264904,-1.790576 -0.262887,-4.005851 0.0053,-5.79708 0.08987,-0.600308 0.16012,-1.10933 0.156107,-1.131156 -0.01179,-0.06397 -2.326272,1.858905 -2.95205,2.452561 -1.467083,1.391789 -1.474283,1.401449 -1.73318,2.32652 -0.337555,1.206122 -0.521267,2.310376 -0.608563,3.657899 -0.07882,1.216843 0.01634,3.720531 0.144216,3.794238 0.04004,0.02308 0.45439,-0.346157 0.920732,-0.820543 z m 74.855722,37.143791 c 2.15468,-0.708244 4.18815,-1.670273 5.44331,-2.575218 0.39721,-0.286382 0.39721,-0.286382 0.48108,-1.777159 0.1025,-1.822261 0.0629,-5.561684 -0.0597,-5.632329 -0.0149,-0.0086 -0.3824,0.18677 -0.81661,0.434164 -1.31721,0.750513 -3.04362,1.442366 -4.8965,1.962283 l -1.76013,0.493879 -0.16868,2.325758 c -0.0928,1.279174 -0.26574,3.009073 -0.38438,3.844237 -0.2157,1.518475 -0.2157,1.518475 0.32393,1.434755 0.2968,-0.046 1.12376,-0.27571 1.83768,-0.51037 z m 7.48189,2.3671 c 0.34318,-0.41999 0.97354,-1.36971 1.4008,-2.11051 0.88831,-1.540099 1.32408,-2.768036 1.77127,-4.990658 0.25771,-1.28082 0.25771,-1.28082 -0.0479,-0.895335 -0.96337,1.215172 -1.69965,2.017538 -2.5211,2.747347 l -0.92391,0.820855 -0.1988,1.454035 c -0.10933,0.799736 -0.33672,2.120026 -0.50527,2.933996 -0.30648,1.47995 -0.30648,1.47995 0.0472,1.14191 0.19453,-0.18592 0.63449,-0.68166 0.97767,-1.10164 z M 99.010503,87.096493 c 1.550637,0.04298 4.849267,-0.135727 5.732147,-0.310547 0.56077,-0.111037 0.56077,-0.111037 0.57873,-0.772304 0.0511,-1.883346 -0.18255,-7.083531 -0.33066,-7.35833 -0.0304,-0.05655 -0.54866,-0.05097 -1.1515,0.01241 -1.76621,0.185722 -3.60388,0.216939 -5.524605,0.09384 -0.987119,-0.06326 -1.813619,-0.08258 -1.83667,-0.04293 -0.0231,0.03964 -0.146826,0.923064 -0.275063,1.963144 -0.185227,1.502374 -0.679229,4.814313 -0.890752,5.971898 -0.03182,0.173956 0.094,0.207469 1.125821,0.299779 0.638877,0.05716 1.79653,0.121524 2.572552,0.143036 z M 39.016512,53.039015 c 0.146769,-0.25464 4.018148,-2.784095 5.782418,-3.778083 0.39342,-0.221652 0.39342,-0.221652 0.286721,-1.082796 -0.229052,-1.848561 -0.189172,-3.626283 0.11991,-5.345342 l 0.182503,-1.015073 -1.669155,0.844629 c -0.918037,0.464543 -2.246868,1.196222 -2.952963,1.625946 -1.283806,0.78132 -1.283806,0.78132 -1.528577,1.655901 -0.474229,1.694484 -0.666353,3.912359 -0.521041,6.014899 0.07044,1.019191 0.156576,1.329075 0.300184,1.079919 z m -2.081398,-7.799806 c 1.441327,-1.103738 1.441327,-1.103738 1.84638,-2.05592 l 0.405047,-0.952187 -0.895351,0.856793 c -1.029206,0.984887 -2.391091,2.454769 -2.864446,3.091595 -0.382696,0.514858 -0.431969,0.545581 1.50837,-0.940281 z m 38.760157,20.645418 c 1.00681,-1.541995 2.089884,-3.215788 2.406826,-3.719533 0.397118,-0.631135 4.461367,-6.666298 4.910719,-7.292089 0.0039,-0.0054 -0.361099,-0.260092 -0.810683,-0.566499 -2.457746,-1.675008 -4.629032,-3.757843 -6.455494,-6.192528 l -0.843096,-1.12385 -0.599807,0.204521 c -2.668343,0.90986 -6.627906,2.459455 -6.727944,2.633017 -0.02901,0.05034 -0.246734,0.160125 -0.483853,0.244008 -0.876639,0.310128 -1.225503,0.466019 -3.055555,1.365331 -1.966894,0.966565 -5.002432,2.600368 -5.079368,2.733849 -0.05647,0.09798 1.314701,2.084287 2.278516,3.300711 2.797724,3.530979 6.710069,7.164557 10.689628,9.927969 0.612765,0.42553 1.253891,0.872237 1.424695,0.992727 0.170791,0.120509 0.35652,0.236377 0.412722,0.257506 0.06079,0.02285 0.843472,-1.096916 1.932708,-2.765165 z m 6.227697,7.229815 c 3.739763,1.683903 8.168554,3.070698 11.946803,3.740933 0.62276,0.110472 1.183047,0.189579 1.2451,0.175797 0.182075,-0.04045 0.420085,-4.497295 0.456146,-8.541526 0.01899,-2.129977 -0.293413,-8.163832 -0.443649,-8.568857 -0.05451,-0.14695 -0.33676,-0.243918 -1.317266,-0.452461 -2.853546,-0.60698 -5.21011,-1.479036 -8.070579,-2.986558 -1.781668,-0.938976 -1.511572,-0.990677 -2.488488,0.476316 -0.280799,0.421615 -1.284908,1.920875 -2.231409,3.331654 -0.9465,1.41078 -2.502846,3.771158 -3.458546,5.245276 -0.955691,1.474123 -1.929006,2.956283 -2.162905,3.293691 l -0.425262,0.61348 2.682323,1.479205 c 1.475287,0.813539 3.395758,1.800433 4.267748,2.193063 z m 29.023372,11.971237 c 0.91304,-0.403661 2.96631,-1.537964 3.05149,-1.685752 0.0691,-0.119824 -0.37905,-3.088096 -0.7284,-4.824892 -0.40407,-2.008834 -0.63052,-2.79849 -0.76929,-2.682652 -0.6311,0.526822 -3.25176,1.641942 -4.83888,2.059001 -0.65248,0.171457 -1.20683,0.347304 -1.23188,0.390768 -0.0251,0.04349 9e-5,0.620897 0.0559,1.283176 0.12447,1.478076 0.22741,4.269234 0.21151,5.735349 l -0.0118,1.091173 1.64205,-0.467049 c 0.90313,-0.256874 2.08184,-0.661476 2.61935,-0.899122 z m 5.61891,4.927391 c 0.64846,-0.674956 0.86175,-0.985765 1.84679,-2.691182 1.11363,-1.928115 1.11363,-1.928115 1.1658,-2.8847 0.0287,-0.526135 -0.004,-1.831764 -0.0735,-2.901406 l -0.12565,-1.944808 -0.58419,0.848935 c -0.74479,1.082292 -1.5354,1.98591 -2.52428,2.885083 l -0.78312,0.712094 0.0891,1.698994 c 0.049,0.934442 0.0729,2.482412 0.0532,3.439924 -0.0198,0.957512 0.0178,1.709262 0.0834,1.670547 0.0656,-0.03875 0.44924,-0.413778 0.85247,-0.833476 z M 99.334194,77.443578 c 1.464556,0.05826 3.950576,-0.04585 4.958216,-0.207644 l 0.58709,-0.09428 -0.1596,-1.17376 c -0.22064,-1.622574 -0.65393,-4.108096 -0.98821,-5.668754 l -0.28025,-1.308403 -0.99968,0.09978 c -1.32932,0.132689 -2.804898,0.155184 -4.23733,0.0646 -0.645727,-0.04083 -1.196683,-0.035 -1.224334,0.01298 -0.02765,0.04798 -0.05916,0.702701 -0.07003,1.454964 -0.01087,0.752252 -0.09071,2.549514 -0.177415,3.993905 l -0.157655,2.626158 0.673052,0.07232 c 0.370177,0.03978 1.304441,0.09743 2.076146,0.12814 z M 47.090927,48.009671 c 1.041968,-0.548367 3.437155,-1.637587 5.045818,-2.294598 1.131682,-0.462207 1.628462,-0.7183 1.616472,-0.833315 -0.215146,-2.063543 -0.182279,-3.827595 0.0954,-5.120213 0.07216,-0.335938 0.120388,-0.660735 0.107161,-0.721771 -0.03094,-0.142762 -3.267906,0.771579 -5.336747,1.50746 -1.359843,0.483693 -1.611861,0.609741 -1.680995,0.840785 -0.264038,0.882384 -0.495313,2.189219 -0.572289,3.233746 -0.08657,1.174594 -0.0032,3.555304 0.12705,3.629962 0.03641,0.02087 0.305546,-0.08808 0.598127,-0.242056 z m 16.588431,2.060057 c 0.986452,-0.482101 1.786149,-0.898803 1.777097,-0.925994 -0.0091,-0.02723 -0.274393,-0.576345 -0.589643,-1.220331 -0.605906,-1.237736 -0.949302,-2.114152 -1.348575,-3.441839 l -0.243936,-0.811157 -2.225478,0.571279 c -1.224016,0.314205 -3.008703,0.821872 -3.965979,1.128159 l -1.740495,0.556882 0.429156,1.495405 c 0.463339,1.614535 0.977608,2.870494 1.849574,4.517046 l 0.554044,1.046198 1.855337,-1.019545 c 1.020436,-0.560754 2.662435,-1.413998 3.648898,-1.896103 z M 42.500085,41.740042 c 0.634987,-0.336723 1.669003,-0.847091 2.297812,-1.134148 1.143287,-0.521928 1.143287,-0.521928 1.358858,-1.059253 0.278044,-0.693052 1.186013,-2.263314 1.694126,-2.930047 0.218113,-0.286144 0.393769,-0.538275 0.390374,-0.560281 -0.01269,-0.08158 -2.259441,1.130061 -3.103995,1.673893 -0.935543,0.602435 -1.895832,1.434283 -2.729045,2.364031 -0.570923,0.637068 -1.808029,2.390931 -1.806379,2.560932 5.76e-4,0.0595 0.168141,0.01564 0.372357,-0.0974 0.204224,-0.113046 0.890843,-0.481039 1.525825,-0.817767 z m 73.792255,39.67216 c 0.56891,-0.589039 0.84118,-0.978719 1.60676,-2.299617 0.50747,-0.874431 0.95895,-1.734626 1.00435,-1.910928 0.084,-0.325891 -1.02854,-4.687079 -1.47147,-5.768607 l -0.22032,-0.537996 -0.40244,0.698225 c -0.49776,0.863588 -1.38967,1.941724 -2.2862,2.763548 l -0.68078,0.624044 0.36845,1.485842 c 0.3793,1.52963 0.71837,3.287653 0.94798,4.915146 0.15156,1.074287 0.12613,1.073605 1.1337,0.03036 z m -8.47737,-4.946575 c 1.38143,-0.40881 3.24359,-1.23615 4.06371,-1.805466 0.38027,-0.263963 0.38027,-0.263963 0.0231,-1.466653 -0.54225,-1.825866 -2.26906,-6.384331 -2.39761,-6.329284 -0.0253,0.0108 -0.31934,0.170977 -0.65351,0.355899 -0.82628,0.457253 -1.92552,0.903755 -3.07337,1.24838 l -0.95776,0.287551 0.35277,1.736984 c 0.36757,1.809832 0.74374,4.02793 0.92754,5.469216 0.059,0.463052 0.14277,0.862322 0.18604,0.887261 0.0432,0.02492 0.73138,-0.147802 1.52911,-0.383888 z M 56.527104,44.101878 c 0.721031,-0.242893 2.481971,-0.745424 3.913213,-1.116741 l 2.60225,-0.675115 -0.06744,-0.868783 c -0.07991,-1.029602 -0.02049,-2.2283 0.151155,-3.048983 0.08597,-0.41106 0.07564,-0.599873 -0.03376,-0.617128 -0.863634,-0.136244 -7.441575,0.694837 -7.5941,0.959463 -0.13273,0.230281 -0.461342,2.148259 -0.507142,2.959982 -0.05463,0.968254 0.04301,2.744107 0.154404,2.808313 0.03877,0.02235 0.66039,-0.158122 1.381416,-0.401008 z m -4.306219,-6.08979 2.224365,-0.59 0.731332,-1.32575 c 0.459758,-0.833433 0.930044,-1.558811 1.266381,-1.953396 0.294265,-0.345213 0.530088,-0.651484 0.524056,-0.68059 -0.02086,-0.100585 -2.621261,0.444602 -3.973369,0.833018 -1.336433,0.383917 -1.369219,0.401134 -2.194729,1.152315 -1.092154,0.99381 -1.914969,1.987976 -2.534164,3.061887 l -0.499905,0.867108 1.11584,-0.387292 c 0.613712,-0.213008 2.116803,-0.652786 3.340211,-0.97729 z M 98.61386,67.806086 c 1.318142,0.06213 4.20679,-0.05211 4.43558,-0.175421 0.14739,-0.07949 -1.3344,-4.945207 -2.18767,-7.183388 l -0.23615,-0.619447 -0.948655,0.07665 c -0.521756,0.04216 -1.432171,0.06296 -2.02315,0.04621 -0.590967,-0.01675 -1.085287,-0.01173 -1.098478,0.01115 -0.0132,0.0229 0.02527,0.615614 0.08546,1.317185 0.131414,1.531784 0.267015,4.144277 0.280235,5.398995 0.0053,0.500699 0.0684,0.944264 0.140296,0.985702 0.07191,0.04145 0.77053,0.105495 1.552535,0.142359 z M 68.618598,47.861521 c 0.976624,-0.41114 2.620055,-1.045681 3.652074,-1.410093 1.03201,-0.36441 1.887819,-0.685494 1.901802,-0.713517 0.01389,-0.0281 -0.147209,-0.403181 -0.35819,-0.833677 -0.210986,-0.430499 -0.506171,-1.183631 -0.655981,-1.673623 l -0.272373,-0.890899 -0.726116,0.04599 c -1.117373,0.07078 -5.041544,0.574836 -6.338349,0.814153 -1.340077,0.247309 -1.276762,0.08536 -0.697382,1.783924 0.362293,1.06213 1.490526,3.518615 1.650344,3.593272 0.03755,0.01783 0.867548,-0.304393 1.844171,-0.715534 z m 51.918292,29.467895 c -0.002,-0.205079 -0.0331,-0.365047 -0.0687,-0.355487 -0.0739,0.01987 -0.0533,0.655753 0.0227,0.699558 0.0275,0.01583 0.0482,-0.139006 0.046,-0.344071 z m -6.12137,-4.808871 c 0.67743,-0.745264 2.00096,-2.852125 2.07112,-3.296921 0.0541,-0.342636 -1.98383,-4.39361 -2.97075,-5.905363 -0.27198,-0.416621 -0.27198,-0.416621 -0.8553,0.457218 -0.49623,0.743396 -1.28617,1.637327 -1.85265,2.096527 -0.11278,0.09134 -0.0171,0.433884 0.39066,1.39892 0.63911,1.512614 1.55195,3.979081 1.948,5.263455 0.21268,0.689694 0.31951,0.895573 0.43109,0.830795 0.0816,-0.04738 0.45862,-0.427443 0.83783,-0.844631 z M 105.6969,67.05605 c 0.96358,-0.299072 3.09565,-1.258726 3.20043,-1.440521 0.12803,-0.222135 -3.59295,-6.929251 -3.96233,-7.142157 -0.0508,-0.02926 -0.39223,0.09613 -0.75889,0.278615 -0.36665,0.182485 -1.00938,0.434211 -1.42828,0.559397 l -0.76164,0.227613 0.21968,0.584862 c 0.44288,1.179135 1.28972,3.779438 1.77879,5.461949 0.27614,0.950009 0.52895,1.745633 0.56178,1.768045 0.0327,0.02263 0.55054,-0.111596 1.15046,-0.297803 z M 83.799834,53.726398 c 0.103655,-0.179838 3.082251,-4.462926 3.294623,-4.737519 0.273937,-0.354139 0.273937,-0.354139 -0.522933,-0.98307 -0.438263,-0.345912 -0.836768,-0.654081 -0.885568,-0.684821 -0.119104,-0.07477 -1.289803,0.617666 -3.698284,2.18784 l -1.996343,1.301486 0.732614,0.621726 c 0.810625,0.687925 1.857199,1.49159 2.897471,2.224967 0.08543,0.06021 0.165598,0.09164 0.178406,0.06941 z m 4.399351,2.452577 c 0.595344,0.268039 1.10003,0.483002 1.121546,0.477692 0.04656,-0.01149 0.956317,-4.625127 1.104318,-5.600152 0.103084,-0.679078 0.103084,-0.679078 -0.608056,-1.063235 -0.39113,-0.211266 -0.853327,-0.435964 -1.027153,-0.499242 -0.34321,-0.125011 -0.175219,-0.339472 -3.376759,4.310776 l -0.445957,0.647804 1.074828,0.619508 c 0.591155,0.340729 1.561929,0.838801 2.157252,1.106857 z m 31.599925,16.709306 c 0.0782,-1.346017 0.009,-2.585596 -0.2141,-3.849276 -0.23081,-1.305689 -0.76533,-3.260372 -0.88294,-3.228762 -0.0487,0.01301 -0.10052,0.232874 -0.11519,0.488474 -0.0271,0.471858 -0.23863,1.549302 -0.46053,2.346225 -0.10289,0.369543 -0.0515,0.621876 0.3262,1.601112 0.2466,0.639344 0.61703,1.726936 0.82319,2.416871 0.20618,0.68994 0.39508,1.249865 0.4198,1.244279 0.0248,-0.0056 0.0713,-0.464104 0.10357,-1.018923 z M 65.351828,41.885107 c 1.390526,-0.249562 4.145695,-0.622463 5.685341,-0.769498 0.799058,-0.0763 1.480952,-0.142989 1.515322,-0.148194 0.03434,-0.0052 0.05359,-0.166772 0.04265,-0.359071 -0.01092,-0.192287 0.0152,-0.806787 0.05805,-1.365553 0.04284,-0.558776 0.07386,-1.037734 0.06892,-1.064362 -0.02998,-0.161587 -4.678937,-0.485598 -7.050517,-0.491391 -1.11433,-0.0027 -1.033547,-0.09306 -1.267268,1.417063 -0.13206,0.853239 -0.106671,2.813979 0.03743,2.890935 0.04103,0.02215 0.450695,-0.02748 0.910072,-0.109929 z m 26.580163,15.704501 c 1.000758,0.298605 2.953528,0.72212 2.995315,0.649621 0.09275,-0.160917 -0.965306,-6.541078 -1.137817,-6.86114 -0.02593,-0.04813 -0.471629,-0.187648 -0.990374,-0.309971 l -0.943183,-0.222393 -0.145626,0.86547 c -0.08009,0.476017 -0.351894,1.883874 -0.604007,3.128582 -0.522772,2.580968 -0.599778,2.324498 0.825692,2.749831 z M 59.004617,36.701804 c 0.45994,-0.05895 1.69081,-0.169353 2.735265,-0.245328 l 1.899007,-0.138142 0.780879,-1.278345 c 0.429462,-0.703091 0.910541,-1.39645 1.06902,-1.540811 0.158471,-0.144358 0.281357,-0.287691 0.273078,-0.318506 -0.0083,-0.03084 -0.469043,-0.08235 -1.023912,-0.114512 -2.234838,-0.129529 -4.950442,-0.04508 -5.366519,0.166912 -0.74058,0.377313 -2.791348,2.785567 -3.068119,3.602945 -0.0963,0.284366 -0.0963,0.284366 0.884383,0.128675 0.539361,-0.08563 1.356982,-0.203927 1.816918,-0.262888 z M 80.3093,48.928645 c 0.705219,-0.46872 1.966092,-1.265197 2.801941,-1.769939 0.835846,-0.504751 1.511786,-0.932711 1.502097,-0.951033 -0.0097,-0.0183 -0.256595,-0.32786 -0.548669,-0.687872 -0.452476,-0.557717 -0.56554,-0.649878 -0.764214,-0.622908 -0.721449,0.09794 -4.009245,0.840744 -5.385291,1.21669 l -1.601079,0.437425 0.481479,0.680131 c 0.513727,0.725688 1.863717,2.312538 2.093346,2.460625 0.08891,0.05736 0.595247,-0.214691 1.42039,-0.763119 z m 17.253441,9.64592 c 0.958014,0.035 2.433274,-0.03499 2.480949,-0.117713 0.0893,-0.154842 -2.74196,-6.1123 -3.22821,-6.792836 -0.160051,-0.223989 -0.258677,-0.249385 -0.88136,-0.226904 l -0.701143,0.02532 0.296418,1.535532 c 0.163044,0.844547 0.419864,2.406988 0.570717,3.472098 0.150862,1.065115 0.326184,1.966479 0.389621,2.003043 0.06342,0.03655 0.546282,0.08222 1.073008,0.101462 z M 77.310093,44.85182 c 0.935146,-0.254822 2.552226,-0.650996 3.593511,-0.880389 1.893241,-0.417087 1.893241,-0.417087 1.721205,-0.929178 -0.09462,-0.281651 -0.230081,-0.547883 -0.301021,-0.59163 -0.206729,-0.127464 -4.21371,-0.283655 -6.204931,-0.241843 l -1.826056,0.03834 0.231865,0.738342 c 0.209336,0.666609 0.913303,2.230609 1.035795,2.301211 0.02715,0.01565 0.814488,-0.180037 1.749632,-0.434853 z m 33.449887,19.15516 c 0.28173,-0.313777 0.7585,-0.996093 1.0595,-1.516238 l 0.54736,-0.945657 -0.60052,-0.852758 c -1.01822,-1.445845 -3.81262,-4.847222 -4.13482,-5.032932 -0.0451,-0.02602 -0.1861,0.131432 -0.31309,0.349964 -0.12679,0.218653 -0.43783,0.615042 -0.69065,0.881175 -0.25287,0.266109 -0.49131,0.535228 -0.52994,0.598004 -0.0385,0.06283 0.1696,0.478549 0.46271,0.92395 0.72188,1.096921 2.24049,3.773612 2.90709,5.12403 0.29979,0.607321 0.59798,1.090008 0.66265,1.07264 0.0646,-0.01739 0.34808,-0.288329 0.62981,-0.602118 z m -7.38673,-6.408312 c 0.42022,-0.189971 0.75701,-0.36935 0.74843,-0.39861 -0.0238,-0.08158 -1.39485,-1.965512 -2.07793,-2.855468 -0.33457,-0.435889 -1.15764,-1.440964 -1.82906,-2.233497 -0.9799,-1.156664 -1.249805,-1.423654 -1.367966,-1.353199 -0.08093,0.0483 -0.283821,0.140337 -0.450803,0.204581 -0.303593,0.116807 -0.303593,0.116807 0.383526,1.437168 0.785634,1.509657 1.802613,3.670427 2.330733,4.952105 l 0.36117,0.876482 0.56894,-0.142078 c 0.31291,-0.07814 0.91274,-0.297508 1.33296,-0.487484 z m 13.8732,8.268626 c 0.11284,-1.33002 -0.0204,-3.425386 -0.25815,-4.060886 -0.16819,-0.449522 -2.31739,-3.83692 -2.50185,-3.943241 -0.0438,-0.02527 -0.11798,0.395338 -0.16476,0.934677 -0.0468,0.539349 -0.16469,1.327864 -0.26202,1.752266 -0.17697,0.771633 -0.17697,0.771633 0.75348,2.295728 0.51175,0.838254 1.22522,2.102226 1.58548,2.808822 0.36027,0.706596 0.67848,1.278423 0.70713,1.27072 0.0287,-0.0077 0.092,-0.483836 0.14069,-1.058086 z M 58.995699,31.721429 c 0.08915,-0.03844 0.288153,-0.165714 0.442277,-0.282802 0.217904,-0.165554 0.01638,-0.143573 -0.906181,0.09879 -0.652525,0.17143 -1.205004,0.343941 -1.227721,0.383354 -0.04743,0.08228 1.44706,-0.09383 1.691625,-0.199341 z m 7.484267,4.603932 c 1.521659,0.01484 3.115026,0.111276 5.021349,0.303907 l 1.651112,0.166836 0.573745,-0.857957 c 0.315579,-0.471865 0.638522,-0.910508 0.717694,-0.974726 0.120655,-0.09791 0.08871,-0.134687 -0.197671,-0.227589 -0.886759,-0.287682 -3.769509,-0.945347 -5.099182,-1.163315 -1.480178,-0.242642 -1.480178,-0.242642 -2.10148,0.325872 -0.615305,0.563027 -1.857254,2.289841 -1.708539,2.375557 0.03907,0.02252 0.553411,0.04566 1.14297,0.05141 z m 9.085741,4.512053 c 1.264028,-0.04272 3.132306,-0.02 5.065372,0.06161 0.812808,0.03432 1.487205,0.02281 1.498656,-0.02556 0.153563,-0.648589 0.140834,-0.712962 -0.158398,-0.801127 -1.281656,-0.377628 -3.639451,-0.945486 -5.182789,-1.248246 -1.017553,-0.199621 -2.013257,-0.396544 -2.212678,-0.43761 -0.199423,-0.04106 -0.39294,-0.022 -0.430042,0.04237 -0.110144,0.191097 -0.204649,1.200297 -0.174069,1.858866 0.02665,0.573728 0.04616,0.612403 0.302074,0.59873 0.150478,-0.008 0.731816,-0.0301 1.291874,-0.04903 z m 14.765657,7.890576 c 0.211624,0.07944 0.404339,0.11047 0.428257,0.06897 0.08946,-0.155209 0.388802,-2.887675 0.320643,-2.92696 -0.03907,-0.02252 -0.273529,0.249521 -0.52101,0.604539 -0.247455,0.355032 -0.629894,0.892794 -0.849731,1.195104 -0.399773,0.549613 -0.399773,0.549613 -0.08135,0.731771 0.175128,0.10019 0.491558,0.247151 0.703191,0.326576 z m -2.143217,-1.311183 c 0.0086,-0.01223 0.389732,-0.536677 0.847028,-1.165462 0.457295,-0.628785 0.826787,-1.16219 0.821098,-1.185349 -0.01127,-0.04574 -2.867175,1.394844 -2.908959,1.467338 -0.04053,0.07032 1.194452,0.949622 1.240833,0.883473 z m 4.833518,2.301795 0.418563,0.114148 -0.146927,-0.585428 c -0.0808,-0.321988 -0.300733,-1.062477 -0.488707,-1.645536 l -0.341772,-1.060103 -0.19502,1.450098 c -0.216893,1.612704 -0.291541,1.441716 0.753863,1.726821 z m -5.832107,-4.881431 c 1.43995,-0.753639 1.61229,-0.73003 -1.965068,-0.269242 -0.15928,0.02052 -0.134168,0.09841 0.132608,0.411229 0.181001,0.212256 0.391397,0.411572 0.467534,0.442925 0.07613,0.03139 0.690357,-0.231853 1.364926,-0.584912 z M 65.131604,31.726744 c 0.865548,0.05184 1.69889,0.114381 1.85187,0.139004 0.176965,0.0285 0.559904,-0.125342 1.052807,-0.422911 0.426059,-0.257216 1.078353,-0.597171 1.449526,-0.755454 0.371178,-0.158289 0.666143,-0.320261 0.65548,-0.359938 -0.0107,-0.03966 -0.764917,-0.119 -1.676131,-0.176273 -1.636909,-0.102891 -1.678906,-0.09808 -3.508447,0.401852 -1.01844,0.27829 -2.117496,0.630253 -2.442345,0.782136 l -0.590639,0.276161 0.817086,0.01059 c 0.449392,0.0058 1.525248,0.053 2.390793,0.104831 z m 40.919656,23.629138 c 0.57362,-0.892292 0.61519,-0.750104 -0.53814,-1.841102 -1.25132,-1.183676 -4.45365,-3.888227 -4.93166,-4.165058 -0.0697,-0.04044 -0.18766,0.05535 -0.292,0.23699 -0.17306,0.301336 -0.16686,0.314123 0.5566,1.145521 1.04799,1.204341 2.9387,3.595735 3.69903,4.67858 0.77509,1.103869 0.76085,1.10439 1.50617,-0.05493 z M 95.847004,49.975259 c -0.01763,-0.05331 -0.385657,-0.652646 -0.817893,-1.331855 l -0.785874,-1.234933 0.345101,1.331557 c 0.345113,1.331557 0.345113,1.331557 0.817893,1.331855 0.260036,1.75e-4 0.458373,-0.04331 0.440773,-0.09662 z m -10.21115,-6.850583 c 0.616626,-0.0873 1.128282,-0.171126 1.137013,-0.186273 0.03766,-0.06533 -2.703914,-0.383929 -2.773327,-0.322286 -0.106748,0.09479 0.226182,0.673789 0.385382,0.670214 0.07137,-0.0016 0.634308,-0.07435 1.250932,-0.161655 z M 112.9661,58.574813 c 0.033,-0.54545 0.0148,-1.387838 -0.0404,-1.871962 -0.10043,-0.880227 -0.10043,-0.880227 -1.04373,-1.816273 -1.06593,-1.057727 -2.28607,-2.158946 -2.972,-2.68234 l -0.46246,-0.352878 -0.0397,0.712256 c -0.0218,0.391747 -0.0884,0.918705 -0.14809,1.171014 -0.10843,0.458763 -0.10843,0.458763 1.00809,1.685992 0.99933,1.098414 3.10581,3.673607 3.36853,4.118047 0.18151,0.307069 0.26813,0.05385 0.32973,-0.963856 z M 78.130724,37.686388 c 0.671308,0.145328 1.973933,0.467466 2.894727,0.715872 1.666465,0.449558 1.675035,0.45042 1.863583,0.187188 0.189435,-0.264443 0.189435,-0.264443 -0.416078,-0.577319 -1.977471,-1.021805 -6.092801,-2.705608 -6.404273,-2.620336 -0.23122,0.0633 -0.837444,0.720835 -1.125745,1.22103 l -0.241213,0.418496 1.104215,0.195416 c 0.607325,0.107477 1.653471,0.314321 2.324784,0.459653 z m 19.844558,11.956855 c -0.01918,-0.07145 -1.720712,-1.789826 -1.761412,-1.778888 -0.02185,0.0059 0.224574,0.447367 0.54754,0.981112 0.587216,0.970451 0.587216,0.970451 0.905868,0.903932 0.175263,-0.03658 0.313869,-0.08435 0.308004,-0.106156 z M 84.75784,41.263138 c 0.563075,0.06961 1.019756,0.111602 1.01484,0.09331 -0.01255,-0.04671 -2.051227,-0.744059 -2.120683,-0.725399 -0.104029,0.02796 -0.117824,0.390316 -0.01707,0.448388 0.05454,0.03144 0.559836,0.114096 1.122915,0.183701 z M 71.224963,32.57129 c 0.914872,0.19375 2.329185,0.546371 3.142918,0.783593 1.385568,0.403928 1.498941,0.418628 1.785498,0.231539 0.168292,-0.109873 0.652248,-0.359318 1.075447,-0.554316 l 0.769468,-0.354547 -0.732473,-0.332292 c -0.835808,-0.379178 -2.142626,-0.86797 -3.224218,-1.205993 -0.724458,-0.226401 -0.768942,-0.223315 -2.080084,0.144354 -1.133919,0.317972 -2.547727,0.850214 -2.433432,0.916091 0.01841,0.01061 0.781997,0.17782 1.696878,0.371568 z m 28.07574,16.075713 c 0.122775,-0.109882 -0.06948,-0.289877 -0.911353,-0.853245 l -0.630476,-0.421877 0.530547,0.595251 c 0.569853,0.639358 0.847755,0.826191 1.011272,0.679888 z m 7.756167,3.911187 c 0.0453,-0.898075 -0.0625,-1.773234 -0.24081,-1.953594 -0.26835,-0.271462 -5.4424,-3.255849 -5.58048,-3.21878 -0.0606,0.01626 -0.12257,0.159183 -0.13779,0.317558 -0.0217,0.227148 0.0603,0.355385 0.3882,0.606729 1.12925,0.86565 3.57731,2.916142 4.44443,3.722643 0.53625,0.498754 1.00588,0.883912 1.04363,0.855923 0.0377,-0.028 0.075,-0.176729 0.0828,-0.330473 z m -21.890332,-12.895802 0.680976,0.225995 -0.766449,-0.456631 c -0.624272,-0.371925 -0.78147,-0.430571 -0.847443,-0.31611 -0.09743,0.169046 0.04329,0.251519 0.932929,0.546723 z m 30.230412,17.058373 c 0.029,-0.0504 -0.56772,-1.228024 -1.19368,-2.35557 l -0.55458,-0.998991 0.24274,0.930104 c 0.19474,0.746183 0.35287,1.071318 0.79961,1.644155 0.5631,0.721998 0.67086,0.841117 0.70591,0.780302 z M 80.027228,35.370401 c 0.856402,0.360125 2.133161,0.950654 2.837243,1.312295 1.263505,0.648975 1.28456,0.655512 1.61959,0.502202 0.339452,-0.15533 0.339452,-0.15533 0.151825,-0.326972 -0.569131,-0.520622 -1.663063,-1.292837 -3.114731,-2.198703 -1.635214,-1.0204 -1.635214,-1.0204 -2.4434,-0.812016 -0.444506,0.114614 -0.967414,0.279849 -1.162028,0.367193 -0.353846,0.158798 -0.353846,0.158798 0.100293,0.330024 0.249791,0.09416 1.154834,0.46587 2.011231,0.825991 z m 19.75571,11.530169 c -0.0048,-0.157215 -0.560208,-0.497712 -1.075837,-0.659564 -0.300784,-0.09443 -0.250817,-0.04118 0.31894,0.339836 0.755964,0.50554 0.762657,0.508405 0.756882,0.319754 z m -13.273315,-8.4426 c -0.32199,-0.27819 -0.487631,-0.369219 -0.611351,-0.335968 -0.127821,0.03435 -0.01881,0.128523 0.441644,0.381574 0.611351,0.335968 0.611351,0.335968 0.169703,-0.0456 z m 25.480847,14.42118 c -0.10852,-0.374086 -0.933,-2.121081 -1.3464,-2.85292 -0.32539,-0.576012 -0.5413,-0.817752 -1.1379,-1.27397 -0.40496,-0.309673 -1.02431,-0.71187 -1.37631,-0.893749 l -0.63999,-0.330709 0.36703,1.195654 c 0.36702,1.195655 0.36702,1.195655 1.49174,2.082261 0.6186,0.487637 1.42105,1.160453 1.7832,1.495145 0.87225,0.806103 0.93748,0.85003 0.85864,0.578272 z M 99.007322,44.869756 c 0.203323,0.06645 0.239061,0.04972 0.170909,-0.07997 -0.12767,-0.242942 -0.409977,-0.36444 -0.944787,-0.406606 -0.47752,-0.03765 -0.47752,-0.03765 0.01964,0.182455 0.273445,0.121054 0.612847,0.257917 0.754236,0.304119 z m -9.694832,-5.68793 c 0.0126,-0.02186 -0.143695,-0.310972 -0.347365,-0.642401 -0.32074,-0.52194 -0.410141,-0.605943 -0.667909,-0.627595 -0.336183,-0.02823 -0.346109,-0.04566 0.403186,0.707952 0.304172,0.305925 0.561164,0.566491 0.571091,0.579041 0.0099,0.01262 0.02836,0.0049 0.04099,-0.01699 z m 4.069171,1.276424 c 0.243775,-0.339297 0.456573,-0.651903 0.472901,-0.69467 0.02636,-0.06886 -0.923975,-0.591725 -1.030158,-0.566787 -0.06658,0.01565 -0.01537,1.803791 0.0528,1.843081 0.03365,0.0194 0.260678,-0.24232 0.504436,-0.581633 z m 2.520408,0.561383 c -0.124803,-0.115309 -0.355604,-0.290444 -0.512891,-0.389226 -0.283492,-0.178034 -0.289389,-0.174993 -0.677922,0.351754 -0.215545,0.292262 -0.457349,0.588149 -0.537291,0.657557 -0.07994,0.06941 0.327227,0.0055 0.904829,-0.142128 1.050113,-0.268312 1.050169,-0.268349 0.823273,-0.477954 z m 1.897987,1.841873 c 0.02086,-0.03619 -0.07735,-0.170811 -0.218206,-0.299195 -0.230787,-0.210342 -0.330938,-0.213207 -1.012796,-0.02922 l -0.756691,0.204197 0.974888,0.09499 c 0.536192,0.05224 0.991958,0.0654 1.012805,0.02923 z m 6.686654,4.706117 c 1.91701,1.097307 1.95379,1.113703 1.83752,0.821496 -0.27862,-0.700375 -0.98986,-2.041245 -1.12335,-2.117817 -0.4514,-0.25868 -3.05979,-1.112583 -4.08255,-1.336129 -0.36974,-0.08082 -0.36974,-0.08082 -0.26452,0.350599 0.10459,0.428799 0.11004,0.43367 0.89098,0.796785 0.43216,0.200957 1.66602,0.869223 2.74189,1.485055 z M 91.429116,39.92441 c -7.08e-4,-0.135865 -0.06638,-1.248385 -0.08057,-1.365101 -0.0028,-0.02331 -0.211543,-0.09725 -0.463807,-0.164303 -0.458651,-0.121933 -0.458651,-0.121933 -0.02804,0.730511 0.448404,0.887652 0.573792,1.062654 0.572418,0.798895 z m -4.46758,-3.371636 c 0.283189,-0.01751 0.532524,-0.06243 0.55408,-0.09983 0.05513,-0.09566 -0.965783,-1.360955 -1.787703,-2.215628 -0.794209,-0.825854 -0.830752,-0.838394 -2.543377,-0.872285 -1.086126,-0.02149 -1.076182,0.0027 0.414176,1.005757 0.731378,0.492292 2.72347,2.031933 2.829544,2.186936 0.01009,0.01482 0.250086,0.01255 0.53328,-0.005 z m -8.208268,-5.035027 c 1.374165,0.644396 1.444009,0.665101 1.971951,0.584599 0.301029,-0.04591 0.909743,-0.09192 1.352697,-0.102271 0.787792,-0.01839 0.800587,-0.02357 0.586224,-0.237428 -0.120543,-0.120218 -0.603117,-0.395143 -1.072588,-0.610599 -0.767408,-0.352751 -1.004044,-0.402133 -2.350685,-0.49063 -0.823557,-0.05412 -1.729087,-0.08615 -2.012286,-0.07118 -0.503716,0.02662 -0.508226,0.02974 -0.207496,0.143455 0.169069,0.06395 0.948496,0.416876 1.73204,0.784303 z M 101.2507,43.564946 c 0.69997,0.167419 1.56681,0.403082 1.92631,0.523694 0.3595,0.12061 0.66936,0.192013 0.68857,0.158681 0.0443,-0.07693 -1.80201,-2.15601 -2.03277,-2.289011 -0.16628,-0.09584 -2.237043,-0.06976 -2.639216,0.03324 -0.165143,0.04229 -0.137506,0.137842 0.166876,0.576608 0.200646,0.289251 0.421683,0.563368 0.491189,0.609147 0.0697,0.04548 0.699061,0.220217 1.399041,0.387637 z M 90.405272,36.859627 c 0.766897,0.177929 0.766897,0.177929 0.730311,-0.174252 -0.02013,-0.193701 -0.129969,-0.684194 -0.244104,-1.089986 -0.207515,-0.737796 -0.207515,-0.737796 -1.285316,-1.072452 -0.59279,-0.184057 -1.350027,-0.397629 -1.68274,-0.474603 l -0.604934,-0.139944 0.614595,0.755914 c 0.338023,0.41575 0.796114,1.025624 1.017962,1.355276 0.221857,0.329649 0.467266,0.613476 0.545358,0.630735 0.07809,0.01726 0.487081,0.111448 0.908868,0.209312 z m 8.654272,3.781039 c 1.424066,-0.169158 1.469306,-0.04468 -0.564658,-1.553394 -1.009151,-0.748549 -1.283622,-0.916383 -1.397906,-0.854777 -0.222568,0.119953 -0.992398,1.036837 -0.9881,1.176826 0.0022,0.06915 0.158067,0.21782 0.346529,0.330399 0.188533,0.112476 0.4912,0.336765 0.672726,0.498204 0.593508,0.527767 0.697081,0.549365 1.931406,0.402748 z m -4.21437,-2.019136 c 0.01814,-0.0024 0.207827,-0.208181 0.421655,-0.457232 0.21384,-0.249052 0.460047,-0.518275 0.547131,-0.598273 0.152554,-0.14012 0.09532,-0.179394 -1.570513,-1.076958 -0.950871,-0.51235 -1.766566,-0.921384 -1.812634,-0.909008 -0.04607,0.01238 -0.01082,0.45913 0.07834,0.992783 0.162101,0.970278 0.162101,0.970278 1.232627,1.511692 0.588803,0.297753 1.085313,0.539424 1.103391,0.536997 z m 13.088706,7.408966 c 0.0825,-0.01532 -2.3073,-2.636867 -2.75396,-3.021009 -0.8174,-0.702991 -0.92253,-0.540616 -0.23319,0.360115 0.34811,0.454846 0.77992,1.055535 0.95959,1.334879 0.29665,0.461223 0.40268,0.545877 1.15388,0.921259 0.45495,0.227355 0.8481,0.409486 0.87365,0.404737 z M 87.078587,32.447448 c 1.005076,0.192959 1.45472,0.242492 1.173543,0.129265 -0.564233,-0.227208 -3.076224,-0.971363 -3.251392,-0.963195 -0.07055,0.0033 0.0041,0.117355 0.165898,0.253503 0.161767,0.136164 0.291548,0.252046 0.288367,0.257565 -0.0033,0.0057 0.727432,0.150807 1.623584,0.322862 z m 1.959889,0.438602 c -0.01318,-0.04906 -0.09207,-0.09897 -0.175263,-0.110944 -0.09198,-0.01316 -0.08256,0.02185 0.02398,0.08924 0.09646,0.06091 0.1645,0.07075 0.151308,0.02169 z"
     id="path43372" /></g><g
   aria-label="C"
   transform="rotate(39.232501,2.8058078,-1)"
   id="text48936"
   style="font-size:45.6933px;line-height:1.25;letter-spacing:0px;word-spacing:0px;fill:#aa272f;fill-opacity:1;stroke:#00000f;stroke-width:1.14233"><path
     d="m 86.639081,8.5898671 q 3.257432,0 6.291753,1.4279159 1.427916,0.669335 1.985695,0.669335 0.401601,0 1.294049,-0.2008 0.290045,-0.06693 0.647024,-0.06693 1.160181,0 2.030317,1.070937 2.141871,2.588097 2.141871,6.42562 0,2.699653 -1.851825,3.949079 -1.004004,0.669335 -2.25343,0.669335 -1.13787,0 -1.851828,-0.490846 -0.713957,-0.490846 -1.383293,-1.740272 -0.959381,-1.762583 -1.561783,-2.521163 -0.602401,-0.780892 -1.472538,-1.405605 -2.164184,-1.51716 -4.529169,-1.51716 -2.298052,0 -3.659034,1.673339 -1.338671,1.651027 -1.338671,4.439925 0,3.837523 1.941073,7.028021 2.632719,4.261436 7.541179,4.261436 1.807206,0 3.569789,-0.602402 1.784895,-0.602402 2.766586,-1.561783 0.847825,-0.803202 1.383294,-0.803202 0.780891,0 1.338671,0.736269 0.557779,0.713958 0.557779,1.740272 0,1.294049 -0.780891,2.900454 -0.780892,1.606405 -1.874139,2.521163 -0.468535,0.37929 -1.941073,0.669335 -0.847825,0.156179 -2.253429,0.825514 -3.302055,1.584094 -6.871844,1.584094 -3.725967,0 -7.429623,-1.673339 -4.306058,-1.941072 -6.804911,-5.957085 -2.454229,-3.904457 -2.454229,-8.165892 0,-4.953082 3.078943,-9.036028 2.677341,-3.547478 6.983399,-5.421617 3.279744,-1.4279159 6.760288,-1.4279159 z"
     style="fill:#aa272f;fill-opacity:1"
     id="path49664" /></g></svg>
