<?xml version="1.0" encoding="UTF-8" standalone="no"?>
<!DOCTYPE svg PUBLIC "-//W3C//DTD SVG 1.1//EN" "http://www.w3.org/Graphics/SVG/1.1/DTD/svg11.dtd">
<!-- Generated by graphviz version 2.40.1 (20161225.0304)
 -->
<!-- Title: Csquares schematic Pages: 1 -->
<svg xmlns="http://www.w3.org/2000/svg" xmlns:xlink="http://www.w3.org/1999/xlink" width="283pt" height="429pt" viewBox="0.00 0.00 282.69 429.40">
  <g id="graph0" class="graph" transform="scale(1 1) rotate(0) translate(4 425.4)">
    <title>Csquares schematic</title>
    <polygon fill="#ffffff" stroke="transparent" points="-4,4 -4,-425.4 278.6921,-425.4 278.6921,4 -4,4"/>
    <g id="clust1" class="cluster">
      <title>cluster_dfc</title>
      <polygon fill="#e0ffff" stroke="#000000" points="93.2244,-64 93.2244,-242 229.2244,-242 229.2244,-64 93.2244,-64"/>
      <text text-anchor="middle" x="161.2244" y="-225.4" font-family="Helvetica,sans-Serif" font-size="14.00" fill="#000000">data.frame csquare</text>
    </g>
    <g id="clust2" class="cluster">
      <title>cluster_char</title>
      <polygon fill="#e0ffff" stroke="#000000" points="114.2244,-250 114.2244,-413.4 244.2244,-413.4 244.2244,-250 114.2244,-250"/>
      <text text-anchor="middle" x="179.2244" y="-396.8" font-family="Helvetica,sans-Serif" font-size="14.00" fill="#000000">character csquare</text>
    </g>
    <!-- csquares -->
    <g id="node1" class="node csquare_nodes">
      <title>csquares</title>
      <polygon fill="#98fb98" stroke="#000000" points="207.5157,-36 134.9331,-36 134.9331,0 207.5157,0 207.5157,-36"/>
      <text text-anchor="middle" x="171.2244" y="-13.8" font-family="Helvetica,sans-Serif" font-size="14.00" fill="#000000">csquares</text>
    </g>
    <!-- strucstrs -->
    <g id="node2" class="node csquare_nodes">
      <title>strucstrs</title>
      <g id="a_node2">
        <a xlink:href="../../articles/csquares-objects.html#using-spatiotemporal-arrays-stars" xlink:title="{&lt;stars&gt;stars::stars|&lt;starscsq&gt;csquares}">
          <polygon fill="#ffffff" stroke="#000000" points="0,-72.5 0,-122.1 84.4488,-122.1 84.4488,-72.5 0,-72.5"/>
          <text text-anchor="middle" x="42.2244" y="-105.5" font-family="Helvetica,sans-Serif" font-size="14.00" fill="#000000">stars::stars</text>
          <polyline fill="none" stroke="#000000" points="0,-97.3 84.4488,-97.3 "/>
          <text text-anchor="middle" x="42.2244" y="-80.7" font-family="Helvetica,sans-Serif" font-size="14.00" fill="#000000">csquares</text>
        </a>
      </g>
    </g>
    <!-- strucstrs&#45;&gt;csquares -->
    <g id="edge5" class="edge">
      <title>strucstrs:starscsq-&gt;csquares</title>
      <path fill="none" stroke="#000000" d="M84.2244,-85.3C93.9484,-85.3 83.3778,-71.7701 89.2244,-64 98.4744,-51.7068 112.028,-42.2304 125.4626,-35.1629"/>
      <polygon fill="#000000" stroke="#000000" points="127.2447,-38.1876 134.6901,-30.6499 124.1692,-31.8994 127.2447,-38.1876"/>
    </g>
    <!-- strucdf -->
    <g id="node3" class="node csquare_nodes">
      <title>strucdf</title>
      <g id="a_node3">
        <a xlink:href="../../articles/csquares-objects.html#using-data-frames" xlink:title="{&lt;df&gt;data.frame|&lt;dfcsq&gt;csquares}">
          <polygon fill="#ffffff" stroke="#000000" points="137.7714,-159.1 137.7714,-208.7 220.6774,-208.7 220.6774,-159.1 137.7714,-159.1"/>
          <text text-anchor="middle" x="179.2244" y="-192.1" font-family="Helvetica,sans-Serif" font-size="14.00" fill="#000000">data.frame</text>
          <polyline fill="none" stroke="#000000" points="137.7714,-183.9 220.6774,-183.9 "/>
          <text text-anchor="middle" x="179.2244" y="-167.3" font-family="Helvetica,sans-Serif" font-size="14.00" fill="#000000">csquares</text>
        </a>
      </g>
    </g>
    <!-- strucdf&#45;&gt;csquares -->
    <g id="edge3" class="edge">
      <title>strucdf:dfcsq-&gt;csquares</title>
      <path fill="none" stroke="#000000" d="M179.2244,-158.9C179.2244,-142.6143 183.1107,-138.8475 184.2244,-122.6 186.0055,-96.6165 187.7997,-89.7979 184.2244,-64 183.4127,-58.143 182.0458,-51.983 180.4956,-46.1423"/>
      <polygon fill="#000000" stroke="#000000" points="183.733,-44.739 177.5878,-36.1085 177.0097,-46.6875 183.733,-44.739"/>
    </g>
    <!-- strucsf -->
    <g id="node4" class="node csquare_nodes">
      <title>strucsf</title>
      <g id="a_node4">
        <a xlink:href="../../articles/csquares-objects.html#using-simple-features-sf" xlink:title="{&lt;sf&gt;sf::sf|&lt;sfcsq&gt;csquares}">
          <polygon fill="#ffffff" stroke="#000000" points="102.8289,-72.5 102.8289,-122.1 175.6199,-122.1 175.6199,-72.5 102.8289,-72.5"/>
          <text text-anchor="middle" x="139.2244" y="-105.5" font-family="Helvetica,sans-Serif" font-size="14.00" fill="#000000">sf::sf</text>
          <polyline fill="none" stroke="#000000" points="102.8289,-97.3 175.6199,-97.3 "/>
          <text text-anchor="middle" x="139.2244" y="-80.7" font-family="Helvetica,sans-Serif" font-size="14.00" fill="#000000">csquares</text>
        </a>
      </g>
    </g>
    <!-- strucdf&#45;&gt;strucsf -->
    <g id="edge6" class="edge">
      <title>strucdf:df-&gt;strucsf:sf</title>
      <path fill="none" stroke="#000000" d="M138.2244,-195.9C124.3592,-195.9 134.7184,-154.7697 138.1965,-132.2755"/>
      <polygon fill="#000000" stroke="#000000" points="141.6808,-132.6061 139.2244,-122.3 134.7177,-131.8885 141.6808,-132.6061"/>
    </g>
    <!-- strucsf&#45;&gt;csquares -->
    <g id="edge4" class="edge">
      <title>strucsf:sfcsq-&gt;csquares</title>
      <path fill="none" stroke="#000000" d="M139.2244,-72.3C139.2244,-62.3921 143.2277,-52.6999 148.4024,-44.3104"/>
      <polygon fill="#000000" stroke="#000000" points="151.2831,-46.2982 154.1002,-36.0847 145.5288,-42.3122 151.2831,-46.2982"/>
    </g>
    <!-- strucchar -->
    <g id="node5" class="node csquare_nodes">
      <title>strucchar</title>
      <g id="a_node5">
        <a xlink:href="../../articles/csquares-objects.html#using-characters" xlink:title="{&lt;character&gt;character|&lt;charcsq&gt;csquares}">
          <polygon fill="#ffffff" stroke="#000000" points="142.0533,-258.5 142.0533,-308.1 216.3955,-308.1 216.3955,-258.5 142.0533,-258.5"/>
          <text text-anchor="middle" x="179.2244" y="-291.5" font-family="Helvetica,sans-Serif" font-size="14.00" fill="#000000">character</text>
          <polyline fill="none" stroke="#000000" points="142.0533,-283.3 216.3955,-283.3 "/>
          <text text-anchor="middle" x="179.2244" y="-266.7" font-family="Helvetica,sans-Serif" font-size="14.00" fill="#000000">csquares</text>
        </a>
      </g>
    </g>
    <!-- strucchar&#45;&gt;csquares -->
    <g id="edge2" class="edge">
      <title>strucchar:charcsq-&gt;csquares</title>
      <path fill="none" stroke="#000000" d="M216.2244,-271.3C262.3708,-271.3 311.8454,-220.2289 233.2244,-64 229.021,-55.6474 222.504,-48.431 215.2466,-42.3518"/>
      <polygon fill="#000000" stroke="#000000" points="217.2347,-39.4666 207.1554,-36.2017 212.9987,-45.0395 217.2347,-39.4666"/>
    </g>
    <!-- strucchar&#45;&gt;strucdf -->
    <g id="edge7" class="edge">
      <title>strucchar:charcsq-&gt;strucdf:dfcsq</title>
      <path fill="none" stroke="#000000" d="M179.2244,-258.3C179.2244,-229.8701 210.5328,-235.927 220.2244,-209.2 224.1097,-198.4855 230.4883,-184.8733 228.7085,-177.4121"/>
      <polygon fill="#000000" stroke="#000000" points="230.5169,-174.4132 220.2244,-171.9 226.7032,-180.2831 230.5169,-174.4132"/>
    </g>
    <!-- strucchar&#45;&gt;strucsf -->
    <g id="edge8" class="edge">
      <title>strucchar:charcsq-&gt;strucsf:sfcsq</title>
      <path fill="none" stroke="#000000" d="M142.2244,-271.3C123.8303,-271.3 91.8658,-130.1624 97.8882,-93.7754"/>
      <polygon fill="#000000" stroke="#000000" points="100.8581,-95.6272 103.2244,-85.3 94.9345,-91.8975 100.8581,-95.6272"/>
    </g>
    <!-- vctr -->
    <g id="node6" class="node csquare_nodes">
      <title>vctr</title>
      <polygon fill="#ffffff" stroke="#000000" points="235.942,-380.6 122.5068,-380.6 122.5068,-344.6 235.942,-344.6 235.942,-380.6"/>
      <text text-anchor="middle" x="179.2244" y="-358.4" font-family="Helvetica,sans-Serif" font-size="14.00" fill="#000000">vctrs::vctrs_vctr</text>
    </g>
    <!-- vctr&#45;&gt;strucchar -->
    <g id="edge1" class="edge">
      <title>vctr-&gt;strucchar:character</title>
      <path fill="none" stroke="#000000" d="M179.2244,-344.5C179.2244,-336.8287 179.2244,-327.5649 179.2244,-318.4443"/>
      <polygon fill="#000000" stroke="#000000" points="182.7245,-318.3 179.2244,-308.3 175.7245,-318.3 182.7245,-318.3"/>
    </g>
  </g>
</svg>
